<?xml version="1.0" encoding="UTF-8"?>
<svg version="1.1" xmlns="http://www.w3.org/2000/svg" width="344" height="250">
<path d="M0 0 C1.19109375 -0.00386719 1.19109375 -0.00386719 2.40625 -0.0078125 C4.5 0.125 4.5 0.125 6.5 1.125 C6.5 1.785 6.5 2.445 6.5 3.125 C7.43682617 3.1751123 8.37365234 3.22522461 9.33886719 3.27685547 C12.87289182 3.46912106 16.40647591 3.66743741 19.93994141 3.86962891 C21.4583647 3.95532306 22.97691942 4.03872478 24.49560547 4.11962891 C48.0029102 5.3764551 48.0029102 5.3764551 54.375 8.5625 C58.29508898 13.28966612 61.29461959 18.86127931 63.421875 24.62109375 C64.75093167 27.7077797 66.5224602 30.08031828 68.5625 32.75 C69.15587158 33.52887573 69.15587158 33.52887573 69.76123047 34.32348633 C73.19609434 38.80211963 76.76669068 43.16685602 80.359375 47.51953125 C89.48459904 58.62632767 89.48459904 58.62632767 92.5 64.125 C93.16 62.805 93.82 61.485 94.5 60.125 C95.16 60.125 95.82 60.125 96.5 60.125 C96.74234375 60.82625 96.9846875 61.5275 97.234375 62.25 C101.74917937 75.0303693 108.38684399 84.76991897 116.33203125 95.62890625 C117.75 97.6875 117.75 97.6875 119.5 101.125 C118.8125 104.125 118.8125 104.125 117.5 106.125 C114.43347372 103.41639634 112.4511478 100.0651519 110.3125 96.625 C106.79111127 91.02954829 103.05441811 85.68215697 99.03125 80.4296875 C97.56416559 78.22157577 97.0859926 76.65872037 96.5 74.125 C94.5162233 72.84063266 94.5162233 72.84063266 92.5 72.125 C92.5 71.465 92.5 70.805 92.5 70.125 C91.84 70.125 91.18 70.125 90.5 70.125 C89.09765625 68.0078125 89.09765625 68.0078125 87.5625 65.25 C85.67636812 61.86364557 84.7779119 60.3102746 81.5 58.125 C82.24121094 58.95 82.98242188 59.775 83.74609375 60.625 C86.69871361 64.16939186 88.61261974 67.96733949 90.5625 72.125 C92.43697887 76.07439707 94.25316589 79.76784177 96.74609375 83.375 C98.5 86.125 98.5 86.125 98.5 90.125 C100.02295764 92.41693869 100.02295764 92.41693869 102 94.625 C105.5 98.68055556 105.5 98.68055556 105.5 103.125 C106.81266518 104.47868596 108.14567325 105.81299596 109.5 107.125 C109.5 108.115 109.5 109.105 109.5 110.125 C109.17 110.455 108.84 110.785 108.5 111.125 C109.2425 111.16625 109.985 111.2075 110.75 111.25 C114.58222661 112.46934483 115.43322101 114.7951894 117.5 118.125 C118.056875 117.13242188 118.61375 116.13984375 119.1875 115.1171875 C119.95830621 113.74477644 120.72914115 112.3723815 121.5 111 C121.86222656 110.35417969 122.22445312 109.70835937 122.59765625 109.04296875 C124.47245601 105.70646071 126.35476088 102.37584757 128.27246094 99.0637207 C134.11937782 88.94366509 139.55669032 78.62846457 144.94726562 68.25952148 C146.11117361 66.02337994 147.28170572 63.79080737 148.453125 61.55859375 C148.80111145 60.88461044 149.1490979 60.21062714 149.50762939 59.51622009 C151.50588571 55.71914176 153.58852744 52.29048601 156.5 49.125 C157.16 49.125 157.82 49.125 158.5 49.125 C163.9521138 58.70463595 169.1589374 68.34586319 174 78.25 C177.71073918 85.82532218 181.69836521 93.06212643 186.328125 100.11572266 C191.5 108.00884584 191.5 108.00884584 191.5 113.125 C192.11875 113.351875 192.7375 113.57875 193.375 113.8125 C196.11410209 115.50429835 196.55024472 117.11744161 197.5 120.125 C198.49 117.485 199.48 114.845 200.5 112.125 C202.15 112.125 203.8 112.125 205.5 112.125 C205.066875 110.949375 205.066875 110.949375 204.625 109.75 C204.46045358 104.9781537 206.18096422 102.79386769 208.73046875 98.87109375 C210.59306825 95.98056959 212.24315578 93.02611685 213.875 90 C214.37773437 89.06929688 214.88046875 88.13859375 215.3984375 87.1796875 C215.76195312 86.50164062 216.12546875 85.82359375 216.5 85.125 C215.51 85.125 214.52 85.125 213.5 85.125 C211.81156393 86.97177463 211.81156393 86.97177463 210.25 89.4375 C209.64285156 90.33855469 209.03570312 91.23960937 208.41015625 92.16796875 C205.87174186 96.09757957 203.40282751 100.06815455 200.98046875 104.0703125 C200.49191406 104.74835938 200.00335938 105.42640625 199.5 106.125 C198.84 106.125 198.18 106.125 197.5 106.125 C197.17 100.845 196.84 95.565 196.5 90.125 C197.49 89.795 198.48 89.465 199.5 89.125 C200.16 90.775 200.82 92.425 201.5 94.125 C207.09183359 86.91405946 207.09183359 86.91405946 211.5625 79 C214.42720069 72.82497852 218.74719289 66.86196691 224.5 63.125 C225.16 63.125 225.82 63.125 226.5 63.125 C226.83 63.785 227.16 64.445 227.5 65.125 C228.62721436 63.85613036 229.75168658 62.58482438 230.875 61.3125 C231.50148437 60.60480469 232.12796875 59.89710937 232.7734375 59.16796875 C234.640599 57.03696181 234.640599 57.03696181 236.5 54.125 C236.17 53.465 235.84 52.805 235.5 52.125 C234.95730469 52.846875 234.41460937 53.56875 233.85546875 54.3125 C232.78232422 55.7046875 232.78232422 55.7046875 231.6875 57.125 C230.97980469 58.053125 230.27210938 58.98125 229.54296875 59.9375 C228.86878906 60.659375 228.19460937 61.38125 227.5 62.125 C226.51 62.125 225.52 62.125 224.5 62.125 C224.5 61.465 224.5 60.805 224.5 60.125 C222.025 60.62 222.025 60.62 219.5 61.125 C219.5 60.135 219.5 59.145 219.5 58.125 C220.16 58.125 220.82 58.125 221.5 58.125 C221.83 57.135 222.16 56.145 222.5 55.125 C223.06460938 55.00253906 223.62921875 54.88007812 224.2109375 54.75390625 C227.60335878 53.82185877 229.66400745 51.45440051 232.125 49.0625 C237.24437244 44.125 237.24437244 44.125 239.5 44.125 C239.87125 43.1040625 239.87125 43.1040625 240.25 42.0625 C241.74197908 38.55634917 243.56835511 35.40879632 245.5 32.125 C243.8603125 32.8675 243.8603125 32.8675 242.1875 33.625 C238.5 35.125 238.5 35.125 235.5 35.125 C236.61006274 32.01682433 237.47254788 31.14159112 240.36328125 29.39453125 C244.00170549 26.76199765 245.16089003 24.59024738 247.0625 20.5625 C249.26510875 15.90902683 250.73388679 13.29562854 255.5 11.125 C256.16 11.125 256.82 11.125 257.5 11.125 C256.84 13.435 256.18 15.745 255.5 18.125 C256.4834496 16.69042672 257.46160921 15.25222594 258.4375 13.8125 C259.25541016 12.61173828 259.25541016 12.61173828 260.08984375 11.38671875 C261.63837326 9.0991857 261.63837326 9.0991857 262.5 6.125 C263.16008057 6.13023682 263.82016113 6.13547363 264.50024414 6.14086914 C267.52098622 6.16178951 270.541713 6.1747078 273.5625 6.1875 C275.12000977 6.20006836 275.12000977 6.20006836 276.70898438 6.21289062 C282.10059125 6.23000684 287.16290927 5.9437922 292.5 5.125 C296.41342624 4.8362174 300.32967842 4.66578474 304.25 4.5 C305.78140625 4.42265625 305.78140625 4.42265625 307.34375 4.34375 C314.15403075 4.0499054 320.73051421 4.33026304 327.5 5.125 C327.5 6.115 327.5 7.105 327.5 8.125 C325.03801978 9.35599011 322.57595786 10.58680958 320.11328125 11.81640625 C318.09251217 12.82830108 316.07649686 13.84969251 314.0625 14.875 C311.5 16.125 311.5 16.125 308.5 17.125 C308.5 17.785 308.5 18.445 308.5 19.125 C309.634375 18.50625 310.76875 17.8875 311.9375 17.25 C316.32836911 15.03492828 320.67829396 13.9732631 325.5 13.125 C325.5 14.115 325.5 15.105 325.5 16.125 C323.83984375 17.6328125 323.83984375 17.6328125 321.4375 19.25 C320.53902344 19.85585938 319.64054687 20.46171875 318.71484375 21.0859375 C314.37568893 23.83811103 309.96472792 26.46615344 305.50366211 29.01611328 C302.35938142 30.84588442 300.5516238 32.0475643 298.5 35.125 C298.5 36.115 298.5 37.105 298.5 38.125 C296.75 39.94921875 296.75 39.94921875 294.5 41.8125 C293.7575 42.43511719 293.015 43.05773437 292.25 43.69921875 C291.6725 44.16972656 291.095 44.64023438 290.5 45.125 C291.40492188 44.89490234 291.40492188 44.89490234 292.328125 44.66015625 C294.70641965 44.0741376 297.09587687 43.59246839 299.5 43.125 C299.12031163 45.71023109 298.74427352 46.8915704 296.828125 48.72265625 C296.14234375 49.20605469 295.4565625 49.68945312 294.75 50.1875 C294.07453125 50.67347656 293.3990625 51.15945312 292.703125 51.66015625 C290.5 53.125 290.5 53.125 288.09375 54.41015625 C284.6944275 56.65759989 282.3484642 59.3902477 279.75 62.5 C279.25628906 63.06460938 278.76257813 63.62921875 278.25390625 64.2109375 C275.44154718 67.5149172 275.44154718 67.5149172 274.02075195 71.53759766 C273.43578894 74.44403836 272.42217967 76.25292098 270.83984375 78.75 C270.29714844 79.6152832 269.75445312 80.48056641 269.1953125 81.37207031 C268.61523438 82.28053711 268.03515625 83.18900391 267.4375 84.125 C266.24864495 86.0155917 265.05984276 87.90621663 263.87109375 89.796875 C263.29214355 90.71146484 262.71319336 91.62605469 262.11669922 92.56835938 C257.48911615 99.88639771 252.91594397 107.22505253 248.77587891 114.83203125 C247.50997029 117.10708172 246.18999884 119.33804252 244.84375 121.56640625 C241.07808592 127.82048826 237.3488894 134.09597909 233.625 140.375 C233.2700647 140.97304443 232.91512939 141.57108887 232.54943848 142.18725586 C228.72442769 148.63423248 224.9209281 155.08857951 221.25 161.625 C217.65552938 167.99120686 213.72582822 174.1269072 209.7956543 180.28857422 C206.09991035 186.10740512 202.69885879 192.01808777 199.5 198.125 C198.54638145 199.85677129 197.58827289 201.58608016 196.625 203.3125 C196.21507812 204.04855469 195.80515625 204.78460938 195.3828125 205.54296875 C194.94582031 206.32607422 194.94582031 206.32607422 194.5 207.125 C193.51 207.125 192.52 207.125 191.5 207.125 C191.09652344 206.30644531 190.69304687 205.48789063 190.27734375 204.64453125 C186.29717124 196.6129097 182.21618944 188.63805128 178.0769043 180.68725586 C177.42621607 179.43736507 176.7755817 178.18744624 176.125 176.9375 C175.8011734 176.31537628 175.4773468 175.69325256 175.14370728 175.05227661 C170.36432736 165.85786547 165.75916659 156.60047604 161.38134766 147.20629883 C161.01058105 146.41118896 160.63981445 145.6160791 160.2578125 144.796875 C159.9395752 144.1069043 159.62133789 143.41693359 159.29345703 142.70605469 C158.60275546 141.12281475 158.60275546 141.12281475 157.5 140.125 C157.21914551 140.6919458 156.93829102 141.2588916 156.64892578 141.84301758 C150.9405404 153.35126146 145.14779125 164.80336722 139.12890625 176.15234375 C137.1607148 179.86463693 135.21461741 183.58788457 133.27734375 187.31640625 C132.46027954 188.88853882 132.46027954 188.88853882 131.62670898 190.49243164 C130.56116773 192.54435417 129.4968317 194.5969031 128.43383789 196.65014648 C127.95035889 197.58028564 127.46687988 198.5104248 126.96875 199.46875 C126.54013672 200.29568359 126.11152344 201.12261719 125.66992188 201.97460938 C124.5 204.125 124.5 204.125 122.5 207.125 C119.5 206.125 119.5 206.125 117.921875 203.3515625 C117.37015625 202.16304687 116.8184375 200.97453125 116.25 199.75 C113.62597879 194.25904422 110.74190558 189.14753242 107.39453125 184.0546875 C104.71552822 179.9118993 102.20864301 175.67104768 99.69580078 171.42602539 C97.95206134 168.49344419 96.18224162 165.66832487 94.23046875 162.86328125 C92.5 160.125 92.5 160.125 92.5 157.125 C91.84 157.125 91.18 157.125 90.5 157.125 C90.19707031 156.48433594 89.89414063 155.84367188 89.58203125 155.18359375 C86.70723055 149.23656263 86.70723055 149.23656263 83.0625 143.75 C80.0628251 139.79759817 78.10642419 135.38096799 76.02734375 130.89453125 C74.48002007 128.08877041 72.76854073 126.35153072 70.5 124.125 C69.80767422 122.21286213 69.11885998 120.2992464 68.4609375 118.375 C66.96377152 114.86944064 64.68152667 112.00644664 62.4453125 108.9375 C59.94698161 105.32545534 57.82898487 101.54312684 55.68823242 97.71142578 C53.13692751 93.17348377 50.41891784 88.76698905 47.625 84.375 C44.13511854 78.86924493 40.87113187 73.28489325 37.75 67.5625 C33.74784694 60.23884317 29.52336005 53.06855054 25.1875 45.9375 C24.6006543 44.9693335 24.01380859 44.00116699 23.40917969 43.00366211 C21.7946156 40.36305222 20.15226012 37.74213159 18.5 35.125 C18.08975586 34.43946045 17.67951172 33.7539209 17.25683594 33.04760742 C14.15417095 28.18525106 10.58376718 26.12276377 5.375 23.8125 C-2.40246637 20.19002242 -2.40246637 20.19002242 -5.5 18.125 C-5.17 17.135 -4.84 16.145 -4.5 15.125 C-2.19 15.455 0.12 15.785 2.5 16.125 C-2.8068628 13.07637669 -8.14485683 10.08793636 -13.5 7.125 C-13.5 6.465 -13.5 5.805 -13.5 5.125 C-10.035 4.63 -10.035 4.63 -6.5 4.125 C-6.5 3.135 -6.5 2.145 -6.5 1.125 C-4.13386544 -0.05806728 -2.63219264 -0.00854608 0 0 Z M253.5 19.125 C254.5 21.125 254.5 21.125 254.5 21.125 Z M225.5 66.125 C226.5 68.125 226.5 68.125 226.5 68.125 Z M224.5 68.125 C223.27776825 69.76636638 222.09686965 71.43864415 220.9375 73.125 C220.29683594 74.053125 219.65617188 74.98125 218.99609375 75.9375 C218.50238281 76.659375 218.00867188 77.38125 217.5 78.125 C220.6743622 78.125 221.56292462 77.70964929 224.1875 76.125 C225.280625 75.465 226.37375 74.805 227.5 74.125 C226.51 73.795 225.52 73.465 224.5 73.125 C224.83 71.475 225.16 69.825 225.5 68.125 C225.17 68.125 224.84 68.125 224.5 68.125 Z " fill="#323239" transform="translate(14.5,40.875)"/>
<path d="M0 0 C2.55334676 2.55334676 2.2706401 3.53478356 2.33129883 7.08203125 C2.35505081 8.14494385 2.3788028 9.20785645 2.40327454 10.30297852 C2.42101425 11.46112061 2.43875397 12.6192627 2.45703125 13.8125 C2.51814165 16.2760601 2.58001679 18.73960132 2.64257812 21.203125 C2.73047479 25.07739557 2.81166706 28.95147266 2.87817383 32.82617188 C3.1545478 47.95935605 3.8538579 61.70152073 9 76 C9.44929076 77.32540672 9.8968103 78.65141522 10.3425293 79.97802734 C11.62974793 83.7446525 13.02516125 87.46587751 14.4375 91.1875 C14.8941808 92.4432501 15.35056086 93.69910961 15.80664062 94.95507812 C18.06779626 100.94954603 20.10721886 105.56227055 24.55200195 110.16381836 C27.750436 114.21969806 29.16553924 119.37019306 30.875 124.1875 C31.2771875 125.26708984 31.679375 126.34667969 32.09375 127.45898438 C35 135.42151626 35 135.42151626 35 140 C31.60644237 138.86881412 31.46821931 138.58047117 29.90625 135.58984375 C29.52138428 134.85975098 29.13651855 134.1296582 28.73999023 133.37744141 C28.12619507 132.16967041 28.12619507 132.16967041 27.5 130.9375 C27.0656665 130.09622559 26.63133301 129.25495117 26.18383789 128.38818359 C16.95594546 110.29485835 7.43200073 91.2960022 1 72 C0.47212891 73.27230469 0.47212891 73.27230469 -0.06640625 74.5703125 C-2.65476344 80.72019511 -5.32462654 86.74803719 -8.375 92.6875 C-11.70823978 99.22035302 -14.56300537 105.90395216 -17.33544922 112.69213867 C-17.65400879 113.4679126 -17.97256836 114.24368652 -18.30078125 115.04296875 C-18.72097534 116.07973755 -18.72097534 116.07973755 -19.1496582 117.13745117 C-20 119 -20 119 -22 122 C-22.70164642 123.98799818 -23.37372872 125.98698517 -24 128 C-25.65 128 -27.3 128 -29 128 C-28.48449607 122.78124672 -27.25477394 118.92959675 -24.8671875 114.2734375 C-24.22159868 112.99129373 -23.57651714 111.70889444 -22.93188477 110.42626953 C-22.59520782 109.76451721 -22.25853088 109.10276489 -21.91165161 108.42095947 C-16.90362457 98.53700207 -12.07853614 88.65362899 -8.5625 78.125 C-8.28712402 77.31981934 -8.01174805 76.51463867 -7.72802734 75.68505859 C-6.03781459 70.31125337 -5.77067926 65.62674793 -6 60 C-4.68 60.66 -3.36 61.32 -2 62 C-1.98969254 61.32650009 -1.97938507 60.65300018 -1.96876526 59.95909119 C-1.86039038 52.93463032 -1.74581856 45.91028972 -1.62768555 38.88598633 C-1.58443584 36.26622032 -1.54275391 33.64642793 -1.50268555 31.02661133 C-1.44474127 27.25594136 -1.38111662 23.48540294 -1.31640625 19.71484375 C-1.29969376 18.54791489 -1.28298126 17.38098602 -1.26576233 16.17869568 C-1.16640554 10.69601218 -0.95907768 5.40291805 0 0 Z " fill="#6F6D6F" transform="translate(171,3)"/>
<path d="M0 0 C4.00972202 3.67557852 6.45335415 7.18966896 9 12 C9.66 10.68 10.32 9.36 11 8 C11.66 8 12.32 8 13 8 C13.24234375 8.70125 13.4846875 9.4025 13.734375 10.125 C18.24917937 22.9053693 24.88684399 32.64491897 32.83203125 43.50390625 C34.25 45.5625 34.25 45.5625 36 49 C35.3125 52 35.3125 52 34 54 C30.93347372 51.29139634 28.9511478 47.9401519 26.8125 44.5 C23.29111127 38.90454829 19.55441811 33.55715697 15.53125 28.3046875 C14.06416559 26.09657577 13.5859926 24.53372037 13 22 C11.0162233 20.71563266 11.0162233 20.71563266 9 20 C9 19.34 9 18.68 9 18 C8.34 18 7.68 18 7 18 C5.59765625 15.91796875 5.59765625 15.91796875 4.0625 13.1875 C2.29093476 10.04761583 0.69164547 7.41846354 -2 5 C-1 2 -1 2 0 0 Z " fill="#616062" transform="translate(98,93)"/>
<path d="M0 0 C0.66 0.66 1.32 1.32 2 2 C3.32 2 4.64 2 6 2 C4.1321726 8.53739591 1.37058474 14.37873299 -1.73095703 20.40112305 C-4.95109852 26.73044268 -7.70674733 33.2182476 -10.38549805 39.79248047 C-10.69914307 40.55834473 -11.01278809 41.32420898 -11.3359375 42.11328125 C-11.60970215 42.79173096 -11.8834668 43.47018066 -12.16552734 44.16918945 C-13 46 -13 46 -15 49 C-15.70164642 50.98799818 -16.37372872 52.98698517 -17 55 C-18.65 55 -20.3 55 -22 55 C-21.48256158 49.73860922 -20.21741422 45.83787446 -17.83203125 41.1328125 C-17.18161936 39.82890862 -16.53131397 38.52495161 -15.88110352 37.22094727 C-15.54233185 36.5507254 -15.20356018 35.88050354 -14.85452271 35.18997192 C-9.06536423 23.7176214 -3.68720837 12.34572751 0 0 Z " fill="#6F6E6F" transform="translate(164,76)"/>
<path d="M0 0 C2.7835232 2.7835232 2.31192767 4.56355527 2.4140625 8.46484375 C2.43351929 9.12206421 2.45297607 9.77928467 2.47302246 10.4564209 C2.53381873 12.61664765 2.57994343 14.77689184 2.625 16.9375 C2.66221703 18.42522116 2.69981771 19.91293277 2.73779297 21.40063477 C2.97176543 31.07835517 3.09713476 40.75698246 3.125 50.4375 C3.12967285 51.57888428 3.1343457 52.72026855 3.13916016 53.89624023 C3.13601807 55.46160522 3.13601807 55.46160522 3.1328125 57.05859375 C3.13168457 57.96923584 3.13055664 58.87987793 3.12939453 59.81811523 C3 62 3 62 2 64 C2.66 64 3.32 64 4 64 C3.67 65.65 3.34 67.3 3 69 C2.34 68.01 1.68 67.02 1 66 C0.34 68.97 -0.32 71.94 -1 75 C-2.32 75 -3.64 75 -5 75 C-5.495 75.99 -5.495 75.99 -6 77 C-6 71.39 -6 65.78 -6 60 C-4.68 60.66 -3.36 61.32 -2 62 C-1.98969254 61.32650009 -1.97938507 60.65300018 -1.96876526 59.95909119 C-1.86039038 52.93463032 -1.74581856 45.91028972 -1.62768555 38.88598633 C-1.58443584 36.26622032 -1.54275391 33.64642793 -1.50268555 31.02661133 C-1.44474127 27.25594136 -1.38111662 23.48540294 -1.31640625 19.71484375 C-1.29969376 18.54791489 -1.28298126 17.38098602 -1.26576233 16.17869568 C-1.16640554 10.69601218 -0.95907768 5.40291805 0 0 Z " fill="#2A2729" transform="translate(171,3)"/>
<path d="M0 0 C0.66 0 1.32 0 2 0 C1.39320291 3.83097267 0.25191853 6.84967736 -1.50390625 10.30078125 C-1.99697266 11.27724609 -2.49003906 12.25371094 -2.99804688 13.25976562 C-3.51431641 14.26716797 -4.03058594 15.27457031 -4.5625 16.3125 C-5.08263672 17.33923828 -5.60277344 18.36597656 -6.13867188 19.42382812 C-7.42040362 21.9520146 -8.70766061 24.477224 -10 27 C-11.32 27 -12.64 27 -14 27 C-15.703125 24.953125 -15.703125 24.953125 -17.25 22.25 C-17.77078125 21.36828125 -18.2915625 20.4865625 -18.828125 19.578125 C-20 17 -20 17 -20 13 C-18.63671875 11.76171875 -18.63671875 11.76171875 -16.6875 10.6875 C-15.96820313 10.27371094 -15.24890625 9.85992187 -14.5078125 9.43359375 C-13.68023437 8.96050781 -12.85265625 8.48742187 -12 8 C-10.0146634 6.75982289 -8.03558384 5.50957963 -6.0625 4.25 C-5.12535156 3.65703125 -4.18820313 3.0640625 -3.22265625 2.453125 C-1.115674 1.18397717 -1.115674 1.18397717 0 0 Z " fill="#4F4E52" transform="translate(215,86)"/>
<path d="M0 0 C1.32 0 2.64 0 4 0 C2.28196086 3.71691161 0.0020614 6.63745417 -2.5625 9.8046875 C-4.12749342 11.97963317 -4.12749342 11.97963317 -4.859375 14.7109375 C-6.39554831 19.14058792 -8.7323633 22.81492709 -11.25 26.75 C-11.71535156 27.51699219 -12.18070312 28.28398438 -12.66015625 29.07421875 C-15.01371577 32.76340709 -16.28271831 34.67638919 -20.359375 36.515625 C-21.66648437 36.75539063 -21.66648437 36.75539063 -23 37 C-23.6875 35.3125 -23.6875 35.3125 -24 33 C-23.03114628 31.31503702 -22.03013277 29.64821244 -21 28 C-21 26.68 -21 25.36 -21 24 C-19.7578125 22.078125 -19.7578125 22.078125 -18.125 20.25 C-17.59132813 19.63640625 -17.05765625 19.0228125 -16.5078125 18.390625 C-15 17 -15 17 -13 17 C-13 16.34 -13 15.68 -13 15 C-12.34 15 -11.68 15 -11 15 C-10.34 13.68 -9.68 12.36 -9 11 C-8.34 11 -7.68 11 -7 11 C-7 10.01 -7 9.02 -7 8 C-7.66 7.67 -8.32 7.34 -9 7 C-8.34 7 -7.68 7 -7 7 C-7.33 6.01 -7.66 5.02 -8 4 C-6.1875 3.375 -6.1875 3.375 -4 3 C-3.01 3.66 -2.02 4.32 -1 5 C-0.67 3.35 -0.34 1.7 0 0 Z " fill="#2D2D32" transform="translate(293,99)"/>
<path d="M0 0 C1 3 1 3 1 5 C1.66 5.33 2.32 5.66 3 6 C2.21654285 7.17219543 1.42297164 8.33763668 0.625 9.5 C0.18414062 10.1496875 -0.25671875 10.799375 -0.7109375 11.46875 C-1.13632812 11.9740625 -1.56171875 12.479375 -2 13 C-2.66 13 -3.32 13 -4 13 C-4.2578125 13.55429688 -4.515625 14.10859375 -4.78125 14.6796875 C-6.16866415 17.3211106 -7.78188506 19.6861504 -9.5 22.125 C-10.1084375 22.99382812 -10.716875 23.86265625 -11.34375 24.7578125 C-13 27 -13 27 -15 29 C-15.99 29 -16.98 29 -18 29 C-17.34 27.02 -16.68 25.04 -16 23 C-16.556875 23.144375 -17.11375 23.28875 -17.6875 23.4375 C-20.11384195 24.02769128 -22.54906345 24.523429 -25 25 C-23.88993726 21.89182433 -23.02745212 21.01659112 -20.13671875 19.26953125 C-16.49829451 16.63699765 -15.33910997 14.46524738 -13.4375 10.4375 C-11.23489125 5.78402683 -9.76611321 3.17062854 -5 1 C-4.34 1 -3.68 1 -3 1 C-3.66 3.31 -4.32 5.62 -5 8 C-3.35 5.36 -1.7 2.72 0 0 Z M-7 9 C-6 11 -6 11 -6 11 Z " fill="#524D51" transform="translate(275,51)"/>
<path d="M0 0 C-0.5479083 4.2829452 -2.02432804 6.85135641 -4.5625 10.3125 C-5.20316406 11.19550781 -5.84382813 12.07851562 -6.50390625 12.98828125 C-6.99761719 13.65214844 -7.49132812 14.31601563 -8 15 C-7.34 15 -6.68 15 -6 15 C-6 15.66 -6 16.32 -6 17 C-6.99 17.33 -7.98 17.66 -9 18 C-9 18.99 -9 19.98 -9 21 C-9.59167969 21.07476562 -10.18335938 21.14953125 -10.79296875 21.2265625 C-13.78743124 22.27594936 -14.57465606 23.7454223 -16.3125 26.375 C-16.910625 27.26703125 -17.50875 28.1590625 -18.125 29.078125 C-20.64265757 33.00147471 -23.10570227 36.95724723 -25.51953125 40.9453125 C-26.25236328 41.96238281 -26.25236328 41.96238281 -27 43 C-27.66 43 -28.32 43 -29 43 C-29.33 37.72 -29.66 32.44 -30 27 C-29.01 26.67 -28.02 26.34 -27 26 C-26.34 27.65 -25.68 29.3 -25 31 C-19.40816641 23.78905946 -19.40816641 23.78905946 -14.9375 15.875 C-12.44469106 10.50161185 -6.717571 0 0 0 Z " fill="#939094" transform="translate(241,104)"/>
<path d="M0 0 C4.97032058 2.75632669 9.67703754 5.71385046 14.3125 9 C15.2415918 9.63808594 15.2415918 9.63808594 16.18945312 10.2890625 C19.34490596 12.52289013 21.71350767 14.27003565 23 18 C21.35 18.33 19.7 18.66 18 19 C17.67 21.97 17.34 24.94 17 28 C13.31246315 26.77082105 13.02664163 25.82462489 11.15234375 22.51953125 C10.62962891 21.60236328 10.10691406 20.68519531 9.56835938 19.74023438 C9.03017578 18.77408203 8.49199219 17.80792969 7.9375 16.8125 C7.39544922 15.86568359 6.85339844 14.91886719 6.29492188 13.94335938 C3.72633556 9.39356433 1.37409476 5.0781763 0 0 Z " fill="#58575A" transform="translate(129,66)"/>
<path d="M0 0 C2.04295735 3.66420331 3.17618038 7.56627819 4.375 11.5625 C6.13754369 17.3587979 8.05679065 23.03581842 10.30078125 28.66796875 C11.0657514 31.21929376 11.12703627 33.35105845 11 36 C9.68 36 8.36 36 7 36 C5.6856685 32.89660564 4.37385219 29.79215432 3.0625 26.6875 C2.50272461 25.36588867 2.50272461 25.36588867 1.93164062 24.01757812 C1.39506836 22.74624023 1.39506836 22.74624023 0.84765625 21.44921875 C0.51773682 20.66893311 0.18781738 19.88864746 -0.15209961 19.0847168 C-0.83152111 17.41423588 -1.42972637 15.71082088 -2 14 C-2.66 14.99 -3.32 15.98 -4 17 C-3.88637738 15.5199159 -3.75877092 14.04089926 -3.625 12.5625 C-3.55539063 11.73878906 -3.48578125 10.91507813 -3.4140625 10.06640625 C-3.27742187 9.38449219 -3.14078125 8.70257813 -3 8 C-2.34 7.67 -1.68 7.34 -1 7 C-0.67 7.66 -0.34 8.32 0 9 C0.33 8.01 0.66 7.02 1 6 C0.34 6 -0.32 6 -1 6 C-0.67 4.02 -0.34 2.04 0 0 Z " fill="#504E50" transform="translate(174,61)"/>
<path d="M0 0 C0.33 0 0.66 0 1 0 C1.125 2.375 1.125 2.375 1 5 C0.34 5.66 -0.32 6.32 -1 7 C-0.83333333 9.08333333 -0.83333333 9.08333333 0 11 C0.66 11.33 1.32 11.66 2 12 C1.01 12.33 0.02 12.66 -1 13 C-1 13.99 -1 14.98 -1 16 C-3 17.6875 -3 17.6875 -5 19 C-5.66 18.67 -6.32 18.34 -7 18 C-6.34 17.01 -5.68 16.02 -5 15 C-5.33 14.34 -5.66 13.68 -6 13 C-6.54269531 13.721875 -7.08539063 14.44375 -7.64453125 15.1875 C-8.35996094 16.115625 -9.07539063 17.04375 -9.8125 18 C-10.52019531 18.928125 -11.22789062 19.85625 -11.95703125 20.8125 C-12.96830078 21.8953125 -12.96830078 21.8953125 -14 23 C-14.99 23 -15.98 23 -17 23 C-17 22.34 -17 21.68 -17 21 C-18.65 21.33 -20.3 21.66 -22 22 C-22 21.01 -22 20.02 -22 19 C-21.34 19 -20.68 19 -20 19 C-19.67 18.01 -19.34 17.02 -19 16 C-18.15308594 15.81630859 -18.15308594 15.81630859 -17.2890625 15.62890625 C-13.89664122 14.69685877 -11.83599255 12.32940051 -9.375 9.9375 C-4.25562756 5 -4.25562756 5 -2 5 C-1.34 3.35 -0.68 1.7 0 0 Z " fill="#454347" transform="translate(256,80)"/>
<path d="M0 0 C0.99 0.33 1.98 0.66 3 1 C3 2.32 3 3.64 3 5 C3.598125 5.04125 4.19625 5.0825 4.8125 5.125 C7 6 7 6 8.75 8.8125 C10 12 10 12 10 16 C8.68 16.33 7.36 16.66 6 17 C6 16.34 6 15.68 6 15 C5.01 15 4.02 15 3 15 C1.85948394 19.98283716 0.77774134 24.94468132 0 30 C-0.33 30 -0.66 30 -1 30 C-1.0246985 26.04900072 -1.04285923 22.09803126 -1.05493164 18.14697266 C-1.06244036 16.14093449 -1.0751447 14.13491798 -1.08789062 12.12890625 C-1.09111328 10.87207031 -1.09433594 9.61523438 -1.09765625 8.3203125 C-1.10289307 7.15773926 -1.10812988 5.99516602 -1.11352539 4.79736328 C-1 2 -1 2 0 0 Z M4 16 C4.66 16.66 5.32 17.32 6 18 C5.01 18.495 5.01 18.495 4 19 C4 18.01 4 17.02 4 16 Z " fill="#353238" transform="translate(175,100)"/>
<path d="M0 0 C-3.46709853 3.69823843 -6.90588373 6.39772745 -11.25 9 C-12.09727661 9.51046875 -12.09727661 9.51046875 -12.96166992 10.03125 C-17.58000716 12.79714486 -22.25845693 15.45157375 -27 18 C-27 16.35 -27 14.7 -27 13 C-24.525 13.495 -24.525 13.495 -22 14 C-21.67 12.68 -21.34 11.36 -21 10 C-22.98 10.99 -22.98 10.99 -25 12 C-24.34 10.68 -23.68 9.36 -23 8 C-22.34 8 -21.68 8 -21 8 C-20.67 7.01 -20.34 6.02 -20 5 C-17.625 4.0625 -17.625 4.0625 -14 3 C-11.15824962 1.91356761 -8.32133104 0.81595669 -5.48828125 -0.29296875 C-3 -1 -3 -1 0 0 Z " fill="#4E4D50" transform="translate(341,55)"/>
<path d="M0 0 C5.06852211 1.35763985 7.20724056 4.45484813 10 8.625 C10.43280273 9.25656006 10.86560547 9.88812012 11.31152344 10.53881836 C12.16445103 11.78916914 13.0119632 13.04323452 13.85351562 14.30126953 C14.81720526 15.72915549 15.8185004 17.13155931 16.828125 18.52734375 C18.25 20.5625 18.25 20.5625 20 24 C19.3125 27 19.3125 27 18 29 C14.85521116 26.2357907 12.82146907 22.76536399 10.625 19.25 C8.18942765 15.38758158 5.76127892 11.57883565 3 7.9375 C1.09004211 5.13224934 0.30420855 3.34629405 0 0 Z " fill="#676467" transform="translate(114,118)"/>
<path d="M0 0 C4.4102692 3.07382399 7.3487555 6.82628176 10.546875 11.07421875 C11.85765326 12.90383178 11.85765326 12.90383178 13 14 C13.29386153 17.72224599 13.14809171 18.77786243 11 22 C11.66 22.99 12.32 23.98 13 25 C11.35 25.33 9.7 25.66 8 26 C7 23 7 23 7 19 C5.88814194 14.83895544 4.25035663 11.36480537 1.8125 7.8125 C-0.1122128 4.82587668 -0.40784642 3.46669454 0 0 Z " fill="#524E53" transform="translate(85,78)"/>
<path d="M0 0 C1.8984375 0.015625 1.8984375 0.015625 4 1 C5.8515625 3.546875 5.8515625 3.546875 7.625 6.75 C8.21539062 7.79671875 8.80578125 8.8434375 9.4140625 9.921875 C13 16.8817734 13 16.8817734 13 21 C12.45730469 20.3503125 11.91460937 19.700625 11.35546875 19.03125 C10.64003906 18.1959375 9.92460938 17.360625 9.1875 16.5 C8.12595703 15.24703125 8.12595703 15.24703125 7.04296875 13.96875 C5.1128338 11.65304689 5.1128338 11.65304689 2 12 C2 11.34 2 10.68 2 10 C1.01 9.67 0.02 9.34 -1 9 C-2.6875 7.4375 -2.6875 7.4375 -4 6 C-2.84826645 3.53199953 -1.95216435 1.95216435 0 0 Z " fill="#3A383E" transform="translate(66,50)"/>
<path d="M0 0 C0 1.32 0 2.64 0 4 C-0.99 4.66 -1.98 5.32 -3 6 C-4.01324326 8.40972598 -4.01324326 8.40972598 -4.6875 11.125 C-4.93886719 12.03507812 -5.19023437 12.94515625 -5.44921875 13.8828125 C-5.63097656 14.58148438 -5.81273437 15.28015625 -6 16 C-8.4375 15.3125 -8.4375 15.3125 -11 14 C-12.15335984 11.15504573 -12.08509519 9.43611285 -11.5 6.4375 C-8.94300931 2.28239013 -4.95340447 0 0 0 Z M-12 15 C-11.34 15 -10.68 15 -10 15 C-10.33 15.99 -10.66 16.98 -11 18 C-11.33 17.01 -11.66 16.02 -12 15 Z " fill="#2D2C32" transform="translate(213,90)"/>
<path d="M0 0 C1.23556641 0.01740234 1.23556641 0.01740234 2.49609375 0.03515625 C3.32238281 0.04417969 4.14867187 0.05320312 5 0.0625 C5.63808594 0.07410156 6.27617187 0.08570312 6.93359375 0.09765625 C6.34431161 3.41509643 5.27660956 5.14428961 2.99609375 7.59765625 C0.79895477 9.97294163 -0.7260104 12.14490017 -2.06640625 15.09765625 C-3.05640625 15.09765625 -4.04640625 15.09765625 -5.06640625 15.09765625 C-4.75897722 12.78447664 -4.44532923 10.47212273 -4.12890625 8.16015625 C-3.95488281 6.87238281 -3.78085938 5.58460937 -3.6015625 4.2578125 C-2.9037628 0.13722887 -2.9037628 0.13722887 0 0 Z " fill="#4C4B4E" transform="translate(227.06640625,95.90234375)"/>
<path d="M0 0 C-0.55598836 4.22703482 -1.97502626 6.85684559 -4.4375 10.3125 C-5.05496094 11.19550781 -5.67242187 12.07851562 -6.30859375 12.98828125 C-7.14583984 13.98408203 -7.14583984 13.98408203 -8 15 C-8.66 15 -9.32 15 -10 15 C-10 15.66 -10 16.32 -10 17 C-11.65 17.66 -13.3 18.32 -15 19 C-14.45995076 14.56676001 -12.83096546 11.93558613 -10.1875 8.375 C-9.50042969 7.43398437 -8.81335938 6.49296875 -8.10546875 5.5234375 C-3.49690402 0 -3.49690402 0 0 0 Z " fill="#4A454B" transform="translate(241,104)"/>
<path d="M0 0 C4.37306152 1.50963148 5.70973724 4.41722372 7.9375 8.3125 C10.56201106 12.88843678 13.24598137 16.31126865 17 20 C17 20.66 17 21.32 17 22 C10.56991077 20.44119049 6.8544167 14.88154976 3.44140625 9.578125 C0 3.61172096 0 3.61172096 0 0 Z " fill="#6E6D6E" transform="translate(77,57)"/>
<path d="M0 0 C2.83810213 2.83810213 2.3719326 5.66417409 2.44921875 9.47265625 C2.47095657 10.22856552 2.4926944 10.98447479 2.51509094 11.76329041 C2.55910468 13.37470575 2.59828224 14.98625919 2.63305664 16.59790039 C2.68614895 19.00133944 2.75675089 21.40374452 2.83007812 23.80664062 C3.16678642 36.19926538 3.25112259 48.76759662 1 61 C0.67 61 0.34 61 0 61 C0.00222061 60.44147339 0.00444122 59.88294678 0.00672913 59.30749512 C0.02894193 53.46704756 0.04397307 47.6266121 0.05493164 41.78613281 C0.05994424 39.60969556 0.06675603 37.43326164 0.07543945 35.25683594 C0.08764004 32.11913221 0.09325918 28.98147321 0.09765625 25.84375 C0.10281754 24.87884644 0.10797882 23.91394287 0.11329651 22.9197998 C0.11363841 18.75369856 0.03026314 14.70356056 -0.53344727 10.57226562 C-1.04277708 6.67246772 -0.71891733 3.83422574 0 0 Z " fill="#292628" transform="translate(171,3)"/>
<path d="M0 0 C10.43057193 -0.11814564 10.43057193 -0.11814564 14.1328125 2.51953125 C16.70342991 5.46891113 18 7.00388925 18 11 C13.82134559 10.44584153 11.27193488 9.08699868 7.875 6.625 C7.02679688 6.01914063 6.17859375 5.41328125 5.3046875 4.7890625 C3.3719847 3.288761 1.67088552 1.78009372 0 0 Z " fill="#353137" transform="translate(100,129)"/>
<path d="M0 0 C1.23593891 3.70781672 0.5678132 4.67510253 -0.9375 8.1875 C-1.31777344 9.08855469 -1.69804687 9.98960938 -2.08984375 10.91796875 C-2.39019531 11.60503906 -2.69054687 12.29210937 -3 13 C-2.34 13 -1.68 13 -1 13 C-0.731875 12.0925 -0.46375 11.185 -0.1875 10.25 C0.89576294 7.28528037 1.98359457 5.3830246 4 3 C3.51600146 6.99298796 2.05261591 9.7957078 -0.01171875 13.21875 C-1.38805429 15.69941801 -2.20555721 18.28565379 -3 21 C-4.65 21 -6.3 21 -8 21 C-7.4943565 15.46640844 -6.04383132 11.43969425 -3.4375 6.5625 C-3.10814453 5.92634766 -2.77878906 5.29019531 -2.43945312 4.63476562 C-1.63546752 3.08505424 -0.81902334 1.54181678 0 0 Z " fill="#777676" transform="translate(150,110)"/>
<path d="M0 0 C0.66 0 1.32 0 2 0 C2.33 1.98 2.66 3.96 3 6 C4.65 5.67 6.3 5.34 8 5 C6.68448876 9.60428934 4.90803514 13.18320388 2 17 C1.34 17 0.68 17 0 17 C-0.19386492 14.35448944 -0.38038267 11.70882217 -0.5625 9.0625 C-0.61857422 8.30775391 -0.67464844 7.55300781 -0.73242188 6.77539062 C-0.86176157 4.85254042 -0.93516912 2.92610452 -1 1 C-0.67 0.67 -0.34 0.34 0 0 Z " fill="#282628" transform="translate(212,130)"/>
<path d="M0 0 C2.91825498 5.2111696 4.62910439 10.13522419 3 16 C3 16.99 3 17.98 3 19 C3 21 3 23 3 25 C1.33167423 22.49751135 0.37618326 20.58850813 -0.625 17.8125 C-0.88539063 17.09707031 -1.14578125 16.38164063 -1.4140625 15.64453125 C-1.60742188 15.10183594 -1.80078125 14.55914062 -2 14 C-2.66 14.99 -3.32 15.98 -4 17 C-3.88637738 15.5199159 -3.75877092 14.04089926 -3.625 12.5625 C-3.55539063 11.73878906 -3.48578125 10.91507813 -3.4140625 10.06640625 C-3.27742187 9.38449219 -3.14078125 8.70257813 -3 8 C-2.34 7.67 -1.68 7.34 -1 7 C-0.67 7.66 -0.34 8.32 0 9 C0.33 8.01 0.66 7.02 1 6 C0.34 6 -0.32 6 -1 6 C-0.67 4.02 -0.34 2.04 0 0 Z " fill="#676668" transform="translate(174,61)"/>
<path d="M0 0 C1.32 0 2.64 0 4 0 C2.63504051 2.95303735 1.03401634 5.34264965 -1 7.875 C-3.49056732 11.11881207 -4.99629331 13.98517324 -6 18 C-6.66 16.68 -7.32 15.36 -8 14 C-7.34 14 -6.68 14 -6 14 C-6.34227572 11.02934491 -6.34227572 11.02934491 -7 8 C-7.66 7.67 -8.32 7.34 -9 7 C-8.34 7 -7.68 7 -7 7 C-7.33 6.01 -7.66 5.02 -8 4 C-6.1875 3.375 -6.1875 3.375 -4 3 C-3.01 3.66 -2.02 4.32 -1 5 C-0.67 3.35 -0.34 1.7 0 0 Z " fill="#5A5A60" transform="translate(293,99)"/>
<path d="M0 0 C0.66 0 1.32 0 2 0 C3.36402043 2.2863012 4.71634274 4.57821749 6.0625 6.875 C6.45244141 7.52597656 6.84238281 8.17695312 7.24414062 8.84765625 C8.22444533 10.53065725 9.11898432 12.26296199 10 14 C9.67 14.66 9.34 15.32 9 16 C8.34 15.67 7.68 15.34 7 15 C6.5 13 6.5 13 6 11 C5.34 10.67 4.68 10.34 4 10 C3.67 19.57 3.34 29.14 3 39 C2.67 39 2.34 39 2 39 C1.97494385 37.99622314 1.9498877 36.99244629 1.92407227 35.95825195 C1.82964704 32.2214764 1.72951314 28.48487157 1.62768555 24.74829102 C1.58446917 23.13342289 1.54278511 21.51851298 1.50268555 19.90356445 C1.44465952 17.57750883 1.38105971 15.25166096 1.31640625 12.92578125 C1.29969376 12.20787918 1.28298126 11.48997711 1.26576233 10.75032043 C1.15763988 7.06228324 0.86035952 3.5914652 0 0 Z " fill="#525155" transform="translate(171,90)"/>
<path d="M0 0 C5.875 3.625 5.875 3.625 7 7 C5.35 7.33 3.7 7.66 2 8 C1.67 10.97 1.34 13.94 1 17 C-2.34726719 15.88424427 -2.62079748 15.48655378 -4.25 12.5625 C-4.8275 11.386875 -5.405 10.21125 -6 9 C-5.67 8.34 -5.34 7.68 -5 7 C-4.01 8.485 -4.01 8.485 -3 10 C-2.67 8.02 -2.34 6.04 -2 4 C-1.01 4 -0.02 4 1 4 C0.67 2.68 0.34 1.36 0 0 Z " fill="#878587" transform="translate(145,77)"/>
<path d="M0 0 C1.19109375 -0.00386719 1.19109375 -0.00386719 2.40625 -0.0078125 C4.5 0.125 4.5 0.125 6.5 1.125 C6.5 1.785 6.5 2.445 6.5 3.125 C12.44 3.455 18.38 3.785 24.5 4.125 C24.5 4.455 24.5 4.785 24.5 5.125 C20.27084783 5.15408633 16.04172148 5.17182792 11.8125 5.1875 C10.61431641 5.19587891 9.41613281 5.20425781 8.18164062 5.21289062 C7.02470703 5.21611328 5.86777344 5.21933594 4.67578125 5.22265625 C3.61270752 5.22789307 2.54963379 5.23312988 1.4543457 5.23852539 C-1.3134509 5.13216844 -3.80792897 4.75394788 -6.5 4.125 C-6.5 3.135 -6.5 2.145 -6.5 1.125 C-4.13386544 -0.05806728 -2.63219264 -0.00854608 0 0 Z " fill="#7E797F" transform="translate(14.5,40.875)"/>
<path d="M0 0 C0.66 0 1.32 0 2 0 C6.77676538 11.52164009 6.77676538 11.52164009 5 17 C3.1875 16.8125 3.1875 16.8125 1 16 C-2 11.82142857 -2 11.82142857 -2 9 C-1.01 9 -0.02 9 1 9 C0.67 8.34 0.34 7.68 0 7 C-0.04022391 4.6670134 -0.04320247 2.33293334 0 0 Z " fill="#808080" transform="translate(155,21)"/>
<path d="M0 0 C-1.15173355 2.46800047 -2.04783565 4.04783565 -4 6 C-6.625 6.625 -6.625 6.625 -9 7 C-9.33 8.32 -9.66 9.64 -10 11 C-11.98 10.34 -13.96 9.68 -16 9 C-13.95877866 4.40725199 -11.40715988 2.73594614 -7.0078125 0.71484375 C-4.58211616 -0.14877965 -2.55270145 -0.31908768 0 0 Z " fill="#28252B" transform="translate(302,93)"/>
<path d="M0 0 C0.33 0.66 0.66 1.32 1 2 C1.99 2.33 2.98 2.66 4 3 C3.24172908 4.17487036 2.46792245 5.33972592 1.6875 6.5 C1.25824219 7.1496875 0.82898438 7.799375 0.38671875 8.46875 C-0.07089844 8.9740625 -0.52851563 9.479375 -1 10 C-1.99 10 -2.98 10 -4 10 C-4 9.34 -4 8.68 -4 8 C-5.65 8.33 -7.3 8.66 -9 9 C-9 8.01 -9 7.02 -9 6 C-8.34 6 -7.68 6 -7 6 C-6.67 5.01 -6.34 4.02 -6 3 C-4.0625 2.4375 -4.0625 2.4375 -2 2 C-1.34 1.34 -0.68 0.68 0 0 Z " fill="#706D70" transform="translate(243,93)"/>
<path d="M0 0 C-0.59458415 3.65569682 -1.60573511 6.56821446 -3.28515625 9.86328125 C-3.73310547 10.74951172 -4.18105469 11.63574219 -4.64257812 12.54882812 C-5.11115234 13.46083984 -5.57972656 14.37285156 -6.0625 15.3125 C-6.53494141 16.24384766 -7.00738281 17.17519531 -7.49414062 18.13476562 C-8.65737644 20.42598769 -9.82613132 22.7142124 -11 25 C-11.66 23.68 -12.32 22.36 -13 21 C-12.01 20.67 -11.02 20.34 -10 20 C-9.896875 18.948125 -9.79375 17.89625 -9.6875 16.8125 C-9.02050668 13.11371887 -8.25009992 10.97013189 -6 8 C-5.34 8 -4.68 8 -4 8 C-4 6.68 -4 5.36 -4 4 C-4.66 3.67 -5.32 3.34 -6 3 C-2.25 0 -2.25 0 0 0 Z " fill="#747478" transform="translate(217,86)"/>
<path d="M0 0 C8.86329833 3.15175049 16.93925927 9.86363293 23 17 C23 17.33 23 17.66 23 18 C17.72 18 12.44 18 7 18 C7 17.67 7 17.34 7 17 C10.96 17 14.92 17 19 17 C16.13997365 14.06052848 13.32845538 11.3923273 10 9 C9.175 8.319375 8.35 7.63875 7.5 6.9375 C5.14888177 4.97105709 5.14888177 4.97105709 2.75 3.9375 C1 3 1 3 0 0 Z " fill="#1F1D23" transform="translate(100,132)"/>
<path d="M0 0 C4.36454049 2.99282776 6.02391964 5.54875531 7.8125 10.5 C8.44091797 12.18609375 8.44091797 12.18609375 9.08203125 13.90625 C10 17 10 17 10 21 C7 20 7 20 5.5 17.5 C3.07520436 11.84214352 0.98348932 6.09763378 0 0 Z " fill="#767577" transform="translate(196,122)"/>
<path d="M0 0 C1.25 1.9375 1.25 1.9375 2 4 C2.66 4.66 3.32 5.32 4 6 C2.35 6 0.7 6 -1 6 C-1.33 7.98 -1.66 9.96 -2 12 C-6.3590077 8.51279384 -6.94552183 5.27239085 -8 0 C-5.04063954 -1.47968023 -3.13239866 -0.84835797 0 0 Z " fill="#363537" transform="translate(145,76)"/>
<path d="M0 0 C-0.66 2.31 -1.32 4.62 -2 7 C-1.34 6.67 -0.68 6.34 0 6 C-1.26941497 9.91402949 -2.51167694 11.79072873 -6 14 C-6.12375 13.195625 -6.2475 12.39125 -6.375 11.5625 C-6.684375 10.2940625 -6.684375 10.2940625 -7 9 C-7.66 8.67 -8.32 8.34 -9 8 C-8.01437243 4.68470727 -7.34552581 3.25050621 -4.5 1.1875 C-2 0 -2 0 0 0 Z M-4 8 C-3 10 -3 10 -3 10 Z " fill="#A39FA2" transform="translate(272,52)"/>
<path d="M0 0 C3.12492251 -0.05791844 6.24970766 -0.09356746 9.375 -0.125 C10.26445312 -0.14175781 11.15390625 -0.15851562 12.0703125 -0.17578125 C12.92109375 -0.18222656 13.771875 -0.18867187 14.6484375 -0.1953125 C15.82672119 -0.21102295 15.82672119 -0.21102295 17.02880859 -0.22705078 C19 0 19 0 21 2 C17.49852959 3.1671568 14.67329964 3.13357453 11 3 C10.34 2.67 9.68 2.34 9 2 C8.67 2.99 8.34 3.98 8 5 C5.1875 5.6875 5.1875 5.6875 2 6 C0.125 4.5625 0.125 4.5625 -1 3 C-0.67 2.01 -0.34 1.02 0 0 Z " fill="#403E42" transform="translate(277,47)"/>
<path d="M0 0 C4.95 0 9.9 0 15 0 C11 6 11 6 9 7 C6.8359375 6.00390625 6.8359375 6.00390625 4.375 4.5625 C3.55773437 4.08941406 2.74046875 3.61632813 1.8984375 3.12890625 C1.27195313 2.75636719 0.64546875 2.38382813 0 2 C0 1.34 0 0.68 0 0 Z " fill="#515054" transform="translate(1,46)"/>
<path d="M0 0 C3.91020436 1.30340145 6.50108551 2.66811401 9 6 C9.25 9.25 9.25 9.25 9 12 C2.39537572 8.81156069 2.39537572 8.81156069 0.8125 5.5625 C0 3 0 3 0 0 Z " fill="#4C4B4E" transform="translate(102,85)"/>
<path d="M0 0 C0.99 0 1.98 0 3 0 C3.33 1.32 3.66 2.64 4 4 C4.99 4 5.98 4 7 4 C7 7.96 7 11.92 7 16 C6.01 16 5.02 16 4 16 C3.32815382 13.89748139 2.66269032 11.79292237 2 9.6875 C1.443125 7.92986328 1.443125 7.92986328 0.875 6.13671875 C0 3 0 3 0 0 Z " fill="#6D6D6E" transform="translate(161,44)"/>
<path d="M0 0 C0.66 0 1.32 0 2 0 C3.16380158 4.1195848 3.0285021 8.02255284 2.87890625 12.265625 C2.85529526 13.05902283 2.83168427 13.85242065 2.80735779 14.66986084 C2.73096071 17.19676683 2.64683387 19.72334767 2.5625 22.25 C2.5092553 23.96613008 2.45651507 25.68227588 2.40429688 27.3984375 C2.27537813 31.59916311 2.13952774 35.79961392 2 40 C1.67 40 1.34 40 1 40 C0.67 29.11 0.34 18.22 0 7 C-0.33 7 -0.66 7 -1 7 C-1.04254356 5.00045254 -1.04080783 2.99958364 -1 1 C-0.67 0.67 -0.34 0.34 0 0 Z " fill="#232128" transform="translate(170,91)"/>
<path d="M0 0 C-1.20381448 2.49361571 -2.45428722 4.68143083 -4 7 C-3.01 7 -2.02 7 -1 7 C-1.66 8.32 -2.32 9.64 -3 11 C-4.65 10.67 -6.3 10.34 -8 10 C-8 11.98 -8 13.96 -8 16 C-8.99 16.33 -9.98 16.66 -11 17 C-11 10.87904425 -10.43818476 7.86066054 -6.0625 3.4375 C-2.37037037 0 -2.37037037 0 0 0 Z " fill="#2D2B31" transform="translate(322,58)"/>
<path d="M0 0 C5.63689034 1.32632714 7.93185683 5.46631765 11 10 C10.34 10 9.68 10 9 10 C9 11.65 9 13.3 9 15 C6.16191334 12.49430187 4.58790905 9.69786434 2.8125 6.375 C2.28269531 5.39273438 1.75289063 4.41046875 1.20703125 3.3984375 C0 1 0 1 0 0 Z " fill="#443F47" transform="translate(69,135)"/>
<path d="M0 0 C2.25 -0.0625 2.25 -0.0625 5 1 C6.78217572 3.83377008 8.08957414 6.77803836 9 10 C8.67 10.66 8.34 11.32 8 12 C7.01 11.67 6.02 11.34 5 11 C5 9.68 5 8.36 5 7 C3.02 7 1.04 7 -1 7 C-2 4 -2 4 -1.0625 1.8125 C-0.5365625 0.9153125 -0.5365625 0.9153125 0 0 Z " fill="#414045" transform="translate(95,102)"/>
<path d="M0 0 C4.08718695 -0.24042276 7.17679443 0.57741188 11 2 C9.1875 3.0625 9.1875 3.0625 7 4 C6.01 3.67 5.02 3.34 4 3 C5.54465684 6.78440926 7.13302711 10.31361426 9.25 13.8125 C9.8275 14.864375 10.405 15.91625 11 17 C10.67 17.66 10.34 18.32 10 19 C0 4.3 0 4.3 0 0 Z " fill="#26242B" transform="translate(215,154)"/>
<path d="M0 0 C-1.32 1.32 -2.64 2.64 -4 4 C-4 3.34 -4 2.68 -4 2 C-5.60875 2.7115625 -5.60875 2.7115625 -7.25 3.4375 C-9.81921667 4.53638183 -12.25155376 5.45031075 -15 6 C-15.9075 6.185625 -16.815 6.37125 -17.75 6.5625 C-18.4925 6.706875 -19.235 6.85125 -20 7 C-20 7.66 -20 8.32 -20 9 C-22.5 10.625 -22.5 10.625 -25 12 C-24.34 10.68 -23.68 9.36 -23 8 C-22.34 8 -21.68 8 -21 8 C-20.67 7.01 -20.34 6.02 -20 5 C-17.625 4.0625 -17.625 4.0625 -14 3 C-11.15824962 1.91356761 -8.32133104 0.81595669 -5.48828125 -0.29296875 C-3 -1 -3 -1 0 0 Z " fill="#898789" transform="translate(341,55)"/>
<path d="M0 0 C1.80125336 2.70188004 3.00243753 4.93057703 4 8 C3.67 8.99 3.34 9.98 3 11 C2.34 10.34 1.68 9.68 1 9 C1.515625 10.093125 2.03125 11.18625 2.5625 12.3125 C4 16 4 16 3 19 C1.63610475 16.37964982 0.28367827 13.75443001 -1.0625 11.125 C-1.45244141 10.37863281 -1.84238281 9.63226563 -2.24414062 8.86328125 C-2.79038086 7.79013672 -2.79038086 7.79013672 -3.34765625 6.6953125 C-3.68804932 6.03547363 -4.02844238 5.37563477 -4.37915039 4.69580078 C-4.58403076 4.13618652 -4.78891113 3.57657227 -5 3 C-4.67 2.34 -4.34 1.68 -4 1 C-2.68 2.32 -1.36 3.64 0 5 C0 3.35 0 1.7 0 0 Z " fill="#868485" transform="translate(196,115)"/>
<path d="M0 0 C0.66 0.33 1.32 0.66 2 1 C0.34808509 2.35156675 -1.32294092 3.679762 -3 5 C-3.58910156 5.46664062 -4.17820312 5.93328125 -4.78515625 6.4140625 C-5.39230469 6.87554687 -5.99945313 7.33703125 -6.625 7.8125 C-7.19476563 8.25207031 -7.76453125 8.69164063 -8.3515625 9.14453125 C-9.16753906 9.56798828 -9.16753906 9.56798828 -10 10 C-10.99 9.67 -11.98 9.34 -13 9 C-13.66 9 -14.32 9 -15 9 C-13.84826645 6.53199953 -12.95216435 4.95216435 -11 3 C-9.88625 3.020625 -8.7725 3.04125 -7.625 3.0625 C-3.79627191 2.99648745 -2.69081219 2.5831797 0 0 Z " fill="#27252A" transform="translate(270,79)"/>
<path d="M0 0 C0.33 0.66 0.66 1.32 1 2 C-0.41097867 4.45669355 -1.86043594 6.77914624 -3.4375 9.125 C-4.0881543 10.11306641 -4.0881543 10.11306641 -4.75195312 11.12109375 C-5.82749114 12.75212943 -6.91284486 14.37668453 -8 16 C-9.59387042 12.81225917 -9.52663137 9.46072041 -9 6 C-7 3.5 -7 3.5 -5 2 C-4.34 2.33 -3.68 2.66 -3 3 C-3 3.33 -3 3.66 -3 4 C-2.01 2.68 -1.02 1.36 0 0 Z " fill="#59575B" transform="translate(284,118)"/>
<path d="M0 0 C-0.38520564 2.53910197 -0.70097943 3.72751123 -2.62890625 5.484375 C-3.26699219 5.90203125 -3.90507812 6.3196875 -4.5625 6.75 C-5.20316406 7.17796875 -5.84382813 7.6059375 -6.50390625 8.046875 C-7.24447266 8.51867187 -7.24447266 8.51867187 -8 9 C-8.33 8.01 -8.66 7.02 -9 6 C-9.99 6.33 -10.98 6.66 -12 7 C-12 6.34 -12 5.68 -12 5 C-10.390625 3.7109375 -10.390625 3.7109375 -8.25 2.375 C-7.55390625 1.92898437 -6.8578125 1.48296875 -6.140625 1.0234375 C-4 0 -4 0 0 0 Z " fill="#717174" transform="translate(314,84)"/>
<path d="M0 0 C1.76141726 2.64212589 3.23818698 5.2427764 4.6875 8.0625 C5.14511719 8.94035156 5.60273437 9.81820312 6.07421875 10.72265625 C6.37972656 11.47417969 6.68523437 12.22570312 7 13 C6.67 13.66 6.34 14.32 6 15 C5.34 14.67 4.68 14.34 4 14 C3.67 14.99 3.34 15.98 3 17 C0 13.375 0 13.375 0 10 C-0.99 9.67 -1.98 9.34 -3 9 C-2.34 8.67 -1.68 8.34 -1 8 C-0.34 8.33 0.32 8.66 1 9 C0.67 6.03 0.34 3.06 0 0 Z " fill="#807E7F" transform="translate(111,105)"/>
<path d="M0 0 C1.11157015 2.07493094 1.96371011 3.79435726 2.375 6.125 C2.684375 7.053125 2.684375 7.053125 3 8 C3.639375 8.268125 4.27875 8.53625 4.9375 8.8125 C7 10 7 10 8.25 13.625 C8.4975 14.73875 8.745 15.8525 9 17 C8.34 17 7.68 17 7 17 C6.67 16.01 6.34 15.02 6 14 C3.99983534 12.79117904 3.99983534 12.79117904 2 12 C2 10.02 2 8.04 2 6 C0.02 6 -1.96 6 -4 6 C-4 5.01 -4 4.02 -4 3 C-2.68 3 -1.36 3 0 3 C0 2.01 0 1.02 0 0 Z " fill="#958D95" transform="translate(203,146)"/>
<path d="M0 0 C0.763125 0.309375 1.52625 0.61875 2.3125 0.9375 C4.18789677 1.67893593 6.08684652 2.36228217 8 3 C8.33 2.34 8.66 1.68 9 1 C9.5534764 3.07553648 10 4.84365964 10 7 C10.99 7.9590625 10.99 7.9590625 12 8.9375 C14 11 14 11 14 14 C13.01 14.495 13.01 14.495 12 15 C12.33 15.66 12.66 16.32 13 17 C11.68 17 10.36 17 9 17 C9.375 15.0625 9.375 15.0625 10 13 C10.66 12.67 11.32 12.34 12 12 C11.46890625 11.46890625 10.9378125 10.9378125 10.390625 10.390625 C6.92708333 6.92708333 3.46354167 3.46354167 0 0 Z " fill="#ACA9AD" transform="translate(110,137)"/>
<path d="M0 0 C2.74327319 1.0405519 4.0040542 2.00500018 5.875 4.3125 C7 7 7 7 6.1875 9.8125 C5.795625 10.534375 5.40375 11.25625 5 12 C2.37599478 9.62590004 0.55431791 7.18635171 -1 4 C-0.6875 1.6875 -0.6875 1.6875 0 0 Z " fill="#393438" transform="translate(127,135)"/>
<path d="M0 0 C1.79068573 2.6860286 2.66055791 4.6626589 3.625 7.6875 C3.88539063 8.49574219 4.14578125 9.30398437 4.4140625 10.13671875 C4.60742188 10.75160156 4.80078125 11.36648437 5 12 C4.01 12.66 3.02 13.32 2 14 C1.16180842 12.37750059 0.3295884 10.75191503 -0.5 9.125 C-0.9640625 8.22007813 -1.428125 7.31515625 -1.90625 6.3828125 C-3 4 -3 4 -3 2 C-2.01 2 -1.02 2 0 2 C0 1.34 0 0.68 0 0 Z " fill="#747375" transform="translate(185,95)"/>
<path d="M0 0 C1.32 0.33 2.64 0.66 4 1 C3.49890042 5.38462134 2.01704885 7.8000997 -1 11 C-1.66 11 -2.32 11 -3 11 C-2.53199289 6.94393835 -2.12046792 3.53411321 0 0 Z " fill="#514F50" transform="translate(262,60)"/>
<path d="M0 0 C0.66 0 1.32 0 2 0 C2.36220266 1.79005941 2.71452469 3.58212057 3.0625 5.375 C3.25972656 6.37273437 3.45695312 7.37046875 3.66015625 8.3984375 C4 11 4 11 3 13 C1.35 12.67 -0.3 12.34 -2 12 C-2.33 10.35 -2.66 8.7 -3 7 C-2.01 6.67 -1.02 6.34 0 6 C0 4.02 0 2.04 0 0 Z " fill="#3C363B" transform="translate(109,101)"/>
<path d="M0 0 C0.66 0.33 1.32 0.66 2 1 C2 4 2 4 0.3203125 5.75390625 C-0.76636719 6.64916016 -0.76636719 6.64916016 -1.875 7.5625 C-2.59429687 8.16191406 -3.31359375 8.76132813 -4.0546875 9.37890625 C-5.01761719 10.18134766 -5.01761719 10.18134766 -6 11 C-6.66 11.66 -7.32 12.32 -8 13 C-8.33 11.35 -8.66 9.7 -9 8 C-8.01 7.34 -7.02 6.68 -6 6 C-5.67 5.01 -5.34 4.02 -5 3 C-2.5625 1.25 -2.5625 1.25 0 0 Z " fill="#757578" transform="translate(311,75)"/>
<path d="M0 0 C1.875 0.1875 1.875 0.1875 4 1 C6.09242143 4.6617375 6.19324053 7.84532871 6 12 C4.68 12.33 3.36 12.66 2 13 C1.855625 11.783125 1.71125 10.56625 1.5625 9.3125 C1.17219047 6.17329623 0.67648144 3.0924866 0 0 Z " fill="#343233" transform="translate(175,75)"/>
<path d="M0 0 C5.61 0 11.22 0 17 0 C16.34 1.65 15.68 3.3 15 5 C14.01 5 13.02 5 12 5 C12 4.34 12 3.68 12 3 C8.04 2.67 4.08 2.34 0 2 C0 1.34 0 0.68 0 0 Z " fill="#3C3A42" transform="translate(103,150)"/>
<path d="M0 0 C0.99 1.32 1.98 2.64 3 4 C1.8125 6.5 1.8125 6.5 0 9 C-2.5625 9.25 -2.5625 9.25 -5 9 C-5.99 9.495 -5.99 9.495 -7 10 C-5.6062718 5.56541027 -3.39417765 3.12621626 0 0 Z " fill="#514E51" transform="translate(248,99)"/>
<path d="M0 0 C1.32 0 2.64 0 4 0 C4.36923077 7.38461538 4.36923077 7.38461538 2.5 10.5 C2.005 10.995 1.51 11.49 1 12 C-0.65606367 10.34393633 -0.39915554 8.27134998 -0.625 6 C-0.72039062 5.0925 -0.81578125 4.185 -0.9140625 3.25 C-0.94242188 2.5075 -0.97078125 1.765 -1 1 C-0.67 0.67 -0.34 0.34 0 0 Z " fill="#818181" transform="translate(185,31)"/>
<path d="M0 0 C0.66 0 1.32 0 2 0 C1.48686537 5.13134625 -0.05734987 9.74837792 -3 14 C-3.99 14.33 -4.98 14.66 -6 15 C-4.36041242 9.76727367 -2.61047965 4.84803364 0 0 Z " fill="#282726" transform="translate(152,109)"/>
<path d="M0 0 C-0.33 2.97 -0.66 5.94 -1 9 C-1.99 9 -2.98 9 -4 9 C-5.25664978 6.09399739 -6 4.20395416 -6 1 C-4 0 -4 0 0 0 Z " fill="#737375" transform="translate(146,104)"/>
<path d="M0 0 C0.99 0 1.98 0 3 0 C7.77777778 4.77777778 7.77777778 4.77777778 8.5 8.75 C8 11 8 11 5 13 C4.35004703 11.58521865 3.70521278 10.16808513 3.0625 8.75 C2.70285156 7.96109375 2.34320313 7.1721875 1.97265625 6.359375 C1.09966721 4.24176302 0.48661492 2.23330638 0 0 Z " fill="#292528" transform="translate(90,86)"/>
<path d="M0 0 C1.45945288 0.08708669 2.91765868 0.19526907 4.375 0.3125 C5.59316406 0.39951172 5.59316406 0.39951172 6.8359375 0.48828125 C9 1 9 1 11 4 C9.68 4 8.36 4 7 4 C7.33 5.32 7.66 6.64 8 8 C5.03 6.35 2.06 4.7 -1 3 C-0.67 2.01 -0.34 1.02 0 0 Z " fill="#807E82" transform="translate(10,56)"/>
<path d="M0 0 C6.14587738 0.1205074 6.14587738 0.1205074 8.578125 2.625 C9.80796624 4.37787717 10.94469135 6.13740456 12 8 C11.01 8.33 10.02 8.66 9 9 C7.46602057 7.81755753 5.93329797 6.62687758 4.5 5.32421875 C2.82697958 3.78728071 2.82697958 3.78728071 0 2 C0 1.34 0 0.68 0 0 Z " fill="#99999A" transform="translate(64,44)"/>
<path d="M0 0 C-1.24976756 3.65316671 -1.67098753 4.78065836 -5 7 C-4.814375 6.360625 -4.62875 5.72125 -4.4375 5.0625 C-4.293125 4.381875 -4.14875 3.70125 -4 3 C-5.87824891 1.12175109 -9.03935276 1.60897603 -11.5625 1.4375 C-13.35880859 1.31181641 -13.35880859 1.31181641 -15.19140625 1.18359375 C-16.11824219 1.12300781 -17.04507813 1.06242188 -18 1 C-12.28300528 -2.21422148 -6.22366622 -1.24473324 0 0 Z " fill="#252129" transform="translate(205,152)"/>
<path d="M0 0 C0.33 0.99 0.66 1.98 1 3 C2.32 2.67 3.64 2.34 5 2 C4.67 2.99 4.34 3.98 4 5 C3.2575 5.12375 2.515 5.2475 1.75 5.375 C-0.96572378 5.87755542 -0.96572378 5.87755542 -3.125 7.0625 C-5 8 -5 8 -8 8 C-6.49776416 3.79373966 -3.71449966 2.26099979 0 0 Z " fill="#7C7C7C" transform="translate(258,68)"/>
<path d="M0 0 C-0.49831724 3.68754757 -1.10067643 5.60490662 -4 8 C-4.33 7.34 -4.66 6.68 -5 6 C-7.31 8.64 -9.62 11.28 -12 14 C-12 10.48336589 -11.33674513 9.72723127 -9.25 7 C-8.73953125 6.319375 -8.2290625 5.63875 -7.703125 4.9375 C-3.36290323 0 -3.36290323 0 0 0 Z " fill="#99979A" transform="translate(241,104)"/>
<path d="M0 0 C2.9375 1.1875 2.9375 1.1875 6 3 C6.875 5.6875 6.875 5.6875 7 8 C5.02 7.34 3.04 6.68 1 6 C1 5.34 1 4.68 1 4 C-0.32 4.33 -1.64 4.66 -3 5 C-2.01 3.35 -1.02 1.7 0 0 Z " fill="#2B2831" transform="translate(204,157)"/>
<path d="M0 0 C0.99 0.33 1.98 0.66 3 1 C3 1.99 3 2.98 3 4 C-0.46222615 5.06723961 -3.64039266 5.10173486 -7.25 5.0625 C-8.32765625 5.05347656 -9.4053125 5.04445312 -10.515625 5.03515625 C-11.33546875 5.02355469 -12.1553125 5.01195312 -13 5 C-12.67 4.34 -12.34 3.68 -12 3 C-10.0390625 2.65625 -10.0390625 2.65625 -7.625 2.5 C-4.10348536 2.27058537 -3.07060704 2.04707136 0 0 Z " fill="#221F26" transform="translate(200,145)"/>
<path d="M0 0 C0.66 0 1.32 0 2 0 C2.66 2.97 3.32 5.94 4 9 C3.01 9.495 3.01 9.495 2 10 C2 12.31 2 14.62 2 17 C1.34 17 0.68 17 0 17 C-0.19386492 14.35448944 -0.38038267 11.70882217 -0.5625 9.0625 C-0.61857422 8.30775391 -0.67464844 7.55300781 -0.73242188 6.77539062 C-0.86176157 4.85254042 -0.93516912 2.92610452 -1 1 C-0.67 0.67 -0.34 0.34 0 0 Z " fill="#656466" transform="translate(212,130)"/>
<path d="M0 0 C0.45375 0.639375 0.9075 1.27875 1.375 1.9375 C2.83921726 4.09702406 2.83921726 4.09702406 5 5 C4.01 5.33 3.02 5.66 2 6 C2 6.99 2 7.98 2 9 C0 10.6875 0 10.6875 -2 12 C-2.66 11.67 -3.32 11.34 -4 11 C-3.34 10.01 -2.68 9.02 -2 8 C-2.185625 7.175 -2.37125 6.35 -2.5625 5.5 C-2.706875 4.675 -2.85125 3.85 -3 3 C-1.5625 1.1875 -1.5625 1.1875 0 0 Z " fill="#8A878C" transform="translate(253,87)"/>
<path d="M0 0 C3.63 0 7.26 0 11 0 C11 0.99 11 1.98 11 3 C7.04 4.98 7.04 4.98 3 7 C2.67 6.01 2.34 5.02 2 4 C3.32 3.67 4.64 3.34 6 3 C6 2.34 6 1.68 6 1 C4.02 1 2.04 1 0 1 C0 0.67 0 0.34 0 0 Z " fill="#504F51" transform="translate(331,46)"/>
<path d="M0 0 C2.475 0.99 2.475 0.99 5 2 C5 3.98 5 5.96 5 8 C4.01 8 3.02 8 2 8 C1.67 9.65 1.34 11.3 1 13 C0.1276588 10.00519083 -0.10829766 7.36424089 -0.0625 4.25 C-0.05347656 3.45078125 -0.04445312 2.6515625 -0.03515625 1.828125 C-0.02355469 1.22484375 -0.01195312 0.6215625 0 0 Z " fill="#6F6D6F" transform="translate(165,63)"/>
<path d="M0 0 C0.99 0.33 1.98 0.66 3 1 C2.67 1.99 2.34 2.98 2 4 C1.34 2.68 0.68 1.36 0 0 Z M-1 2 C-0.67 2 -0.34 2 0 2 C0 11.24 0 20.48 0 30 C-0.33 30 -0.66 30 -1 30 C-1 20.76 -1 11.52 -1 2 Z " fill="#1E1B22" transform="translate(175,100)"/>
<path d="M0 0 C3.29078593 2.79716804 5.06305458 6.19528578 7 10 C6.67 10.66 6.34 11.32 6 12 C4.66102417 11.04956626 3.32894573 10.08940853 2 9.125 C1.2575 8.59132813 0.515 8.05765625 -0.25 7.5078125 C-0.8275 7.01023437 -1.405 6.51265625 -2 6 C-2 5.34 -2 4.68 -2 4 C-1.01 4 -0.02 4 1 4 C0.67 2.68 0.34 1.36 0 0 Z " fill="#1F1921" transform="translate(85,83)"/>
<path d="M0 0 C0 3.90454958 -1.34249676 6.49374314 -3 10 C-3.66 10.66 -4.32 11.32 -5 12 C-5.99 12 -6.98 12 -8 12 C-6.71999898 6.99635967 -4.82671924 4.43423522 -1 1 C-0.67 0.67 -0.34 0.34 0 0 Z " fill="#656368" transform="translate(265,68)"/>
<path d="M0 0 C3 1 3 1 4.203125 2.77734375 C4.54859375 3.49019531 4.8940625 4.20304688 5.25 4.9375 C5.78367188 6.00291016 5.78367188 6.00291016 6.328125 7.08984375 C6.54984375 7.72019531 6.7715625 8.35054687 7 9 C6.67 9.66 6.34 10.32 6 11 C5.67 10.01 5.34 9.02 5 8 C3.35 8 1.7 8 0 8 C0 5.36 0 2.72 0 0 Z " fill="#29252C" transform="translate(213,158)"/>
<path d="M0 0 C0 0.99 0 1.98 0 3 C-6.625 7 -6.625 7 -10 7 C-8.2054392 2.26888516 -5.07937287 0 0 0 Z " fill="#989599" transform="translate(198,77)"/>
<path d="M0 0 C0.66 0.33 1.32 0.66 2 1 C0.58707905 5.8274799 -1.42974154 9.7162359 -4 14 C-4.99 13.67 -5.98 13.34 -7 13 C-6.34 12.67 -5.68 12.34 -5 12 C-4.32741333 9.66836622 -3.66152556 7.3347961 -3 5 C-1.375 2.0625 -1.375 2.0625 0 0 Z " fill="#6C6C6E" transform="translate(213,234)"/>
<path d="M0 0 C2.5 1.375 2.5 1.375 5 3 C5 3.66 5 4.32 5 5 C5.66 5 6.32 5 7 5 C7 5.66 7 6.32 7 7 C6.34 7 5.68 7 5 7 C4.67 7.99 4.34 8.98 4 10 C1.2027092 7.93243723 0.97307727 6.85559629 0.3125 3.3125 C0.209375 2.219375 0.10625 1.12625 0 0 Z " fill="#514B52" transform="translate(84,158)"/>
<path d="M0 0 C0.75 1.75 0.75 1.75 1 4 C-0.6875 6.3125 -0.6875 6.3125 -3 8 C-5.25 7.75 -5.25 7.75 -7 7 C-3.375 1.125 -3.375 1.125 0 0 Z " fill="#5E5C5D" transform="translate(223,128)"/>
<path d="M0 0 C1.98 0 3.96 0 6 0 C5.34 0.66 4.68 1.32 4 2 C5.32 2.66 6.64 3.32 8 4 C8 4.33 8 4.66 8 5 C3.17639811 5.19294408 -0.49646738 4.75747614 -5 3 C-5 2.67 -5 2.34 -5 2 C-3.35 2 -1.7 2 0 2 C0 1.34 0 0.68 0 0 Z " fill="#7E7C82" transform="translate(220,151)"/>
<path d="M0 0 C0.33 0.66 0.66 1.32 1 2 C-0.21484375 4.8203125 -0.21484375 4.8203125 -1.9375 8.125 C-2.50339844 9.22070312 -3.06929687 10.31640625 -3.65234375 11.4453125 C-4.09707031 12.28835937 -4.54179687 13.13140625 -5 14 C-7 11 -7 11 -6.625 8.8125 C-6.41875 8.214375 -6.2125 7.61625 -6 7 C-5.01 7 -4.02 7 -3 7 C-3.33 6.01 -3.66 5.02 -4 4 C-3.01 3.67 -2.02 3.34 -1 3 C-0.67 2.01 -0.34 1.02 0 0 Z " fill="#4E4D51" transform="translate(155,210)"/>
<path d="M0 0 C4.08332902 1.55466197 6.08208993 4.25087844 8.75 7.625 C9.54921875 8.62789062 10.3484375 9.63078125 11.171875 10.6640625 C12.07679687 11.82035156 12.07679687 11.82035156 13 13 C12.34 13.66 11.68 14.32 11 15 C10.18595703 13.87851563 10.18595703 13.87851563 9.35546875 12.734375 C8.64003906 11.74953125 7.92460938 10.7646875 7.1875 9.75 C6.47980469 8.77546875 5.77210937 7.8009375 5.04296875 6.796875 C3.37845179 4.51810991 1.69998177 2.25234178 0 0 Z " fill="#212024" transform="translate(69,61)"/>
<path d="M0 0 C1 3 1 3 1 5 C1.66 5.33 2.32 5.66 3 6 C1.35 8.31 -0.3 10.62 -2 13 C-2.66 12.67 -3.32 12.34 -4 12 C-3.45660208 7.43545749 -2.20536179 4.0271824 0 0 Z " fill="#5C595E" transform="translate(275,51)"/>
<path d="M0 0 C0.33 0.66 0.66 1.32 1 2 C0.67 2.66 0.34 3.32 0 4 C1.98 4 3.96 4 6 4 C6.33 4.66 6.66 5.32 7 6 C2.545 6.495 2.545 6.495 -2 7 C-2.33 7.99 -2.66 8.98 -3 10 C-3.66 10 -4.32 10 -5 10 C-3.66511872 6.40608886 -2.03977277 3.24509304 0 0 Z " fill="#908B90" transform="translate(139,147)"/>
<path d="M0 0 C2.97 0 5.94 0 9 0 C9.33 0.66 9.66 1.32 10 2 C8.02 2.99 8.02 2.99 6 4 C6 4.66 6 5.32 6 6 C3.5625 5.25 3.5625 5.25 1 4 C0.67 2.68 0.34 1.36 0 0 Z " fill="#464248" transform="translate(17,60)"/>
<path d="M0 0 C1.70884005 1.62339805 3.37446717 3.29319053 5 5 C5 5.66 5 6.32 5 7 C5.99 7.33 6.98 7.66 8 8 C7.67 8.99 7.34 9.98 7 11 C4.09197539 8.78071806 2.04687238 7.07030857 0 4 C0 2.68 0 1.36 0 0 Z " fill="#3B393D" transform="translate(78,148)"/>
<path d="M0 0 C0.66 0.66 1.32 1.32 2 2 C1.96712417 4.72869407 1.43602229 7.2966618 1 10 C0.01 10.33 -0.98 10.66 -2 11 C-2.95465783 8.83032311 -3.14401212 7.43671207 -2.3984375 5.17578125 C-1.64129615 3.4315257 -0.82390802 1.71372869 0 0 Z " fill="#29282E" transform="translate(233,125)"/>
<path d="M0 0 C2.375 0.5625 2.375 0.5625 5 2 C6.3125 5.625 6.3125 5.625 7 9 C3.46352496 7.32482761 2.2088437 6.50719183 0.6875 2.8125 C0.460625 1.884375 0.23375 0.95625 0 0 Z " fill="#494649" transform="translate(114,118)"/>
<path d="M0 0 C0.66 0.99 1.32 1.98 2 3 C2.66 2.67 3.32 2.34 4 2 C3.46930939 5.82097239 2.50298434 8.06171403 0 11 C-2.21538462 5.70769231 -2.21538462 5.70769231 -1.125 2.125 C-0.75375 1.42375 -0.3825 0.7225 0 0 Z " fill="#737273" transform="translate(160,88)"/>
<path d="M0 0 C0.66 0 1.32 0 2 0 C0.31326082 4.49797113 -1.81673892 8.72886302 -4 13 C-6.0859375 9.3359375 -6.0859375 9.3359375 -5.3125 6.3125 C-4 4 -4 4 -1 3 C-0.67 2.01 -0.34 1.02 0 0 Z " fill="#5F5F62" transform="translate(241,188)"/>
<path d="M0 0 C0.66 0.99 1.32 1.98 2 3 C1.01 3.33 0.02 3.66 -1 4 C-1 5.98 -1 7.96 -1 10 C-2.65 10.66 -4.3 11.32 -6 12 C-4.43358249 7.69235185 -2.31663844 3.93828536 0 0 Z " fill="#706F75" transform="translate(146,135)"/>
<path d="M0 0 C3.34726719 1.11575573 3.62079748 1.51344622 5.25 4.4375 C5.8275 5.613125 6.405 6.78875 7 8 C6.67 8.66 6.34 9.32 6 10 C2.64888166 7.76592111 1.18446044 6.73784176 0.1875 2.75 C0.125625 1.8425 0.06375 0.935 0 0 Z " fill="#4D4D51" transform="translate(192,130)"/>
<path d="M0 0 C0.66 1.32 1.32 2.64 2 4 C-0.70016634 5.35008317 -2.56977836 4.94892419 -5.5625 4.6875 C-6.55378906 4.60886719 -7.54507813 4.53023437 -8.56640625 4.44921875 C-9.77103516 4.22685547 -9.77103516 4.22685547 -11 4 C-11.33 3.34 -11.66 2.68 -12 2 C-8.04 2 -4.08 2 0 2 C0 1.34 0 0.68 0 0 Z " fill="#7F787F" transform="translate(111,125)"/>
<path d="M0 0 C2.40575607 2.18517099 3.79535581 4.25919671 5.1875 7.1875 C5.53167969 7.90292969 5.87585938 8.61835937 6.23046875 9.35546875 C6.48441406 9.89816406 6.73835938 10.44085938 7 11 C5.02 11 3.04 11 1 11 C1.33 9.68 1.66 8.36 2 7 C1.67 7 1.34 7 1 7 C0.67 4.69 0.34 2.38 0 0 Z " fill="#605F64" transform="translate(104,114)"/>
<path d="M0 0 C0.99 0.66 1.98 1.32 3 2 C6.65670531 1.19351312 6.65670531 1.19351312 10 0 C10 0.66 10 1.32 10 2 C6.04 3.32 2.08 4.64 -2 6 C-1 1 -1 1 0 0 Z " fill="#211E24" transform="translate(243,107)"/>
<path d="M0 0 C0.99 0.99 1.98 1.98 3 3 C3.66 2.01 4.32 1.02 5 0 C5 1.65 5 3.3 5 5 C4.01 5.495 4.01 5.495 3 6 C3 6.99 3 7.98 3 9 C2.34 9 1.68 9 1 9 C0.01 6.69 -0.98 4.38 -2 2 C-1.34 2 -0.68 2 0 2 C0 1.34 0 0.68 0 0 Z " fill="#8F8B8F" transform="translate(104,102)"/>
<path d="M0 0 C1.32 0 2.64 0 4 0 C2.44499019 3.81684226 -0.03595495 6.19195732 -3 9 C-3.33 8.01 -3.66 7.02 -4 6 C-3.01 5.67 -2.02 5.34 -1 5 C-0.67 3.35 -0.34 1.7 0 0 Z " fill="#69686B" transform="translate(293,99)"/>
<path d="M0 0 C2.125 0.375 2.125 0.375 4 1 C3.25 2.9375 3.25 2.9375 2 5 C-0.125 5.75 -0.125 5.75 -2 6 C-2 2 -2 2 0 0 Z " fill="#848484" transform="translate(317,77)"/>
<path d="M0 0 C2.625 0.9375 2.625 0.9375 5 2 C4.01 2.33 3.02 2.66 2 3 C2.53725895 6.37705625 3.11064623 9.696686 4 13 C-0.3590077 9.51279384 -0.94552183 6.27239085 -2 1 C-1.34 0.67 -0.68 0.34 0 0 Z " fill="#262328" transform="translate(139,75)"/>
<path d="M0 0 C0.99 0 1.98 0 3 0 C3.33 1.32 3.66 2.64 4 4 C4.99 4 5.98 4 7 4 C6.67 4.99 6.34 5.98 6 7 C5.01 6.67 4.02 6.34 3 6 C2.67 6.99 2.34 7.98 2 9 C1.34 6.03 0.68 3.06 0 0 Z " fill="#8A8A8B" transform="translate(161,44)"/>
<path d="M0 0 C0.33 0.66 0.66 1.32 1 2 C0.0625 4.125 0.0625 4.125 -1 6 C0.093125 5.79375 1.18625 5.5875 2.3125 5.375 C6 5 6 5 9 7 C5.0186217 8.3271261 1.14954773 8.06915913 -3 8 C-2.45276317 4.62537285 -1.9451 2.91765 0 0 Z " fill="#838083" transform="translate(222,142)"/>
<path d="M0 0 C0 3.21015174 -0.6068864 4.21377279 -2 7 C-2.37668344 8.65740715 -2.72057545 10.32345271 -3 12 C-4.32 11.67 -5.64 11.34 -7 11 C-6.02262231 9.35310365 -5.0430468 7.70751146 -4.0625 6.0625 C-3.51722656 5.14597656 -2.97195312 4.22945312 -2.41015625 3.28515625 C-1 1 -1 1 0 0 Z " fill="#1E1C20" transform="translate(227,137)"/>
<path d="M0 0 C1.32 0 2.64 0 4 0 C5.60355101 3.50776784 6.22036864 6.14354879 6 10 C3.25722422 6.80009492 1.3697164 3.99500618 0 0 Z " fill="#535256" transform="translate(63,125)"/>
<path d="M0 0 C0.66 0.99 1.32 1.98 2 3 C4.64 2.67 7.28 2.34 10 2 C7.14693203 4.32472205 4.45925163 5.7508258 1 7 C0.34 6.34 -0.32 5.68 -1 5 C-0.625 2.375 -0.625 2.375 0 0 Z " fill="#9A959C" transform="translate(240,109)"/>
<path d="M0 0 C6.875 3.75 6.875 3.75 8 6 C6.68 5.67 5.36 5.34 4 5 C4.66 6.98 5.32 8.96 6 11 C3.02753198 8.45217026 1.58464712 5.54659117 0 2 C0 1.34 0 0.68 0 0 Z " fill="#928F92" transform="translate(129,66)"/>
<path d="M0 0 C0.99 0 1.98 0 3 0 C1.68938409 4.23429756 0.05643741 8.07407404 -2 12 C-2.33 12 -2.66 12 -3 12 C-3.18041261 8.03092248 -3.07632075 5.41982242 -1 2 C-0.67 1.34 -0.34 0.68 0 0 Z " fill="#525255" transform="translate(140,235)"/>
<path d="M0 0 C2.3125 0.1875 2.3125 0.1875 5 1 C6.875 3.3125 6.875 3.3125 8 6 C7.6875 8.3125 7.6875 8.3125 7 10 C3 5.375 3 5.375 3 2 C2.01 1.34 1.02 0.68 0 0 Z " fill="#726C77" transform="translate(123,152)"/>
<path d="M0 0 C0.66 0.66 1.32 1.32 2 2 C-3.94 2.495 -3.94 2.495 -10 3 C-10.33 2.34 -10.66 1.68 -11 1 C-7.07703567 -0.30765478 -4.13997567 -0.1971417 0 0 Z " fill="#2A262D" transform="translate(234,151)"/>
<path d="M0 0 C0.66 0 1.32 0 2 0 C2.474375 1.11375 2.94875 2.2275 3.4375 3.375 C4.25306463 5.26710994 5.07856355 7.15712709 6 9 C4.35 9.33 2.7 9.66 1 10 C-0.14769226 6.55692321 0 3.59905765 0 0 Z " fill="#84828B" transform="translate(92,94)"/>
<path d="M0 0 C-0.625 1.9375 -0.625 1.9375 -2 4 C-5.125 4.75 -5.125 4.75 -8 5 C-8 4.01 -8 3.02 -8 2 C-4.91190305 0.23537317 -3.76687864 0 0 0 Z " fill="#323032" transform="translate(337,57)"/>
<path d="M0 0 C1.3921875 0.3403125 1.3921875 0.3403125 2.8125 0.6875 C1.8225 1.3475 0.8325 2.0075 -0.1875 2.6875 C-0.868125 3.22375 -1.54875 3.76 -2.25 4.3125 C-4.1875 5.6875 -4.1875 5.6875 -6.1875 5.6875 C-6.5175 6.3475 -6.8475 7.0075 -7.1875 7.6875 C-7.5175 6.6975 -7.8475 5.7075 -8.1875 4.6875 C-7.5275 4.6875 -6.8675 4.6875 -6.1875 4.6875 C-6.1875 4.0275 -6.1875 3.3675 -6.1875 2.6875 C-4.24285495 -0.22946758 -3.57332261 -0.35032575 0 0 Z " fill="#4F4E53" transform="translate(329.1875,52.3125)"/>
<path d="M0 0 C0 0.33 0 0.66 0 1 C-10.37357631 4.62870159 -10.37357631 4.62870159 -16 3 C-16 2.67 -16 2.34 -16 2 C-10.42932723 0.40837921 -5.78898419 -0.20674944 0 0 Z " fill="#252228" transform="translate(306,48)"/>
<path d="M0 0 C2.64465038 3.1254959 3.84414715 6.08788267 5 10 C4.01 10 3.02 10 2 10 C-1.07692308 4.58461538 -1.07692308 4.58461538 -0.6875 1.625 C-0.460625 1.08875 -0.23375 0.5525 0 0 Z " fill="#4F4E53" transform="translate(187,118)"/>
<path d="M0 0 C5.99725275 2.10714286 5.99725275 2.10714286 8 5 C7.6875 7.1875 7.6875 7.1875 7 9 C6.34 9 5.68 9 5 9 C3.35 6.03 1.7 3.06 0 0 Z " fill="#6F6F72" transform="translate(32,74)"/>
<path d="M0 0 C0.66 0 1.32 0 2 0 C0.125 5.75 0.125 5.75 -1 8 C-2.32 7.34 -3.64 6.68 -5 6 C-3.38405168 3.95880212 -1.7143618 1.95927063 0 0 Z " fill="#545252" transform="translate(270,52)"/>
<path d="M0 0 C-2 3 -2 3 -3.9453125 3.51171875 C-4.66460937 3.56972656 -5.38390625 3.62773438 -6.125 3.6875 C-8.043125 3.8421875 -8.043125 3.8421875 -10 4 C-10 3.34 -10 2.68 -10 2 C-6.49223216 0.39644899 -3.85645121 -0.22036864 0 0 Z " fill="#7F7F81" transform="translate(266,53)"/>
<path d="M0 0 C1.95803507 -0.05389087 3.91648909 -0.09274217 5.875 -0.125 C7.51082031 -0.15980469 7.51082031 -0.15980469 9.1796875 -0.1953125 C12 0 12 0 14 2 C10.43528609 3.18823797 7.7441664 3.26274852 4 3 C1.77734375 1.484375 1.77734375 1.484375 0 0 Z " fill="#6B676C" transform="translate(284,47)"/>
<path d="M0 0 C0 1.32 0 2.64 0 4 C0.66 4 1.32 4 2 4 C2 4.66 2 5.32 2 6 C-0.375 6.1875 -0.375 6.1875 -3 6 C-3.66 5.01 -4.32 4.02 -5 3 C-2.25 0 -2.25 0 0 0 Z " fill="#28272D" transform="translate(16,48)"/>
<path d="M0 0 C0.33 0.66 0.66 1.32 1 2 C2.423125 1.9690625 2.423125 1.9690625 3.875 1.9375 C7 2 7 2 9 3 C9 3.66 9 4.32 9 5 C0.42857143 4.14285714 0.42857143 4.14285714 -3 2 C-2.01 1.34 -1.02 0.68 0 0 Z " fill="#242126" transform="translate(102,122)"/>
<path d="M0 0 C0.66 0.33 1.32 0.66 2 1 C1.6875 3.875 1.6875 3.875 1 7 C0.01 7.66 -0.98 8.32 -2 9 C-2 6.69 -2 4.38 -2 2 C-1.34 2 -0.68 2 0 2 C0 1.34 0 0.68 0 0 Z " fill="#2B2A2B" transform="translate(163,83)"/>
<path d="M0 0 C2.96404505 2.80804268 5.44499019 5.18315774 7 9 C3.15314615 7.75237172 0.97070595 6.6129609 -1 3 C-0.67 2.01 -0.34 1.02 0 0 Z " fill="#A2A2A4" transform="translate(87,70)"/>
<path d="M0 0 C2 2 2 2 2.1953125 4.3828125 C2.17210937 5.28773437 2.14890625 6.19265625 2.125 7.125 C2.10695312 8.03507813 2.08890625 8.94515625 2.0703125 9.8828125 C2.03550781 10.93082031 2.03550781 10.93082031 2 12 C1.01 11.67 0.02 11.34 -1 11 C-0.67 7.37 -0.34 3.74 0 0 Z " fill="#7A7A7A" transform="translate(171,3)"/>
<path d="M0 0 C1.98 0.495 1.98 0.495 4 1 C4.66 3.31 5.32 5.62 6 8 C5.34 8 4.68 8 4 8 C3.67 7.01 3.34 6.02 3 5 C0.99983534 3.79117904 0.99983534 3.79117904 -1 3 C-0.67 2.01 -0.34 1.02 0 0 Z " fill="#66606A" transform="translate(206,155)"/>
<path d="M0 0 C3.45007001 1.15002334 4.76793569 2.15219381 7 5 C7.25 8.25 7.25 8.25 7 11 C4.04250209 7.53258866 1.92151848 4.13126473 0 0 Z " fill="#605C63" transform="translate(51,106)"/>
<path d="M0 0 C0.33 0 0.66 0 1 0 C0.98839844 0.69867188 0.97679687 1.39734375 0.96484375 2.1171875 C0.95582031 3.02726562 0.94679687 3.93734375 0.9375 4.875 C0.92589844 5.77992187 0.91429687 6.68484375 0.90234375 7.6171875 C0.83750743 10.0168585 0.83750743 10.0168585 2 12 C1.67 12.66 1.34 13.32 1 14 C0.01 14 -0.98 14 -2 14 C-1.34 9.38 -0.68 4.76 0 0 Z " fill="#A9A8AA" transform="translate(224,97)"/>
<path d="M0 0 C1 3 1 3 0.22265625 5.04296875 C-0.16019531 5.75066406 -0.54304687 6.45835937 -0.9375 7.1875 C-1.31777344 7.90292969 -1.69804687 8.61835938 -2.08984375 9.35546875 C-2.54037109 10.16951172 -2.54037109 10.16951172 -3 11 C-3.66 10.34 -4.32 9.68 -5 9 C-4.5504955 7.68445015 -4.09010284 6.37261642 -3.625 5.0625 C-3.36976563 4.33160156 -3.11453125 3.60070312 -2.8515625 2.84765625 C-2 1 -2 1 0 0 Z " fill="#212226" transform="translate(161,195)"/>
<path d="M0 0 C-0.33 0.66 -0.66 1.32 -1 2 C-4.63 2 -8.26 2 -12 2 C-7.89783794 -0.73477471 -4.73617773 -1.57872591 0 0 Z " fill="#201E25" transform="translate(127,154)"/>
<path d="M0 0 C3.3 0.33 6.6 0.66 10 1 C9.01 1.66 8.02 2.32 7 3 C7.33 3.66 7.66 4.32 8 5 C4.35446828 3.7191375 2.83328987 2.83328987 0 0 Z " fill="#1C171E" transform="translate(100,129)"/>
<path d="M0 0 C0.33 0 0.66 0 1 0 C1 1.65 1 3.3 1 5 C1.99 5 2.98 5 4 5 C4.33 4.01 4.66 3.02 5 2 C4.67 3.65 4.34 5.3 4 7 C2.35 7 0.7 7 -1 7 C-0.67 4.69 -0.34 2.38 0 0 Z " fill="#A19FA1" transform="translate(143,124)"/>
<path d="M0 0 C0.66 0.33 1.32 0.66 2 1 C0.7934375 2.11375 0.7934375 2.11375 -0.4375 3.25 C-2.76988591 5.75304829 -3.63534394 6.7180955 -4 10 C-4.99 9.67 -5.98 9.34 -7 9 C-5.44499019 5.18315774 -2.96404505 2.80804268 0 0 Z " fill="#232128" transform="translate(278,117)"/>
<path d="M0 0 C0 0.66 0 1.32 0 2 C-0.66 2 -1.32 2 -2 2 C-2 2.66 -2 3.32 -2 4 C-3.65 4.66 -5.3 5.32 -7 6 C-6.625 3.5625 -6.625 3.5625 -6 1 C-4 0 -4 0 0 0 Z " fill="#575458" transform="translate(233,117)"/>
<path d="M0 0 C2 1.1875 2 1.1875 4 3 C4.25 5.6875 4.25 5.6875 4 8 C3.01 7.67 2.02 7.34 1 7 C0.67 4.69 0.34 2.38 0 0 Z " fill="#2B2A2C" transform="translate(192,112)"/>
<path d="M0 0 C3.48832306 2.20927127 4.73058503 4.08597051 6 8 C4.68 7.67 3.36 7.34 2 7 C1.34 4.69 0.68 2.38 0 0 Z " fill="#262429" transform="translate(113,205)"/>
<path d="M0 0 C0.99 0 1.98 0 3 0 C1.8141763 3.37503669 0.72426311 5.64722731 -2 8 C-1.125 1.125 -1.125 1.125 0 0 Z " fill="#3E3E42" transform="translate(267,142)"/>
<path d="M0 0 C0.33 0.66 0.66 1.32 1 2 C0.34 2 -0.32 2 -1 2 C-1.33 3.65 -1.66 5.3 -2 7 C-3.32 7.33 -4.64 7.66 -6 8 C-5.8125 5.6875 -5.8125 5.6875 -5 3 C-2.4375 1.1875 -2.4375 1.1875 0 0 Z " fill="#363639" transform="translate(210,90)"/>
<path d="M0 0 C2.72957339 2.35735884 3.88893396 4.58133526 5 8 C5 8.99 5 9.98 5 11 C3.96680187 9.7391988 2.94875621 8.46596742 1.9375 7.1875 C1.08478516 6.12595703 1.08478516 6.12595703 0.21484375 5.04296875 C-0.18605469 4.36878906 -0.58695312 3.69460937 -1 3 C-0.67 2.01 -0.34 1.02 0 0 Z " fill="#B3B2B6" transform="translate(74,60)"/>
<path d="M0 0 C1.98 0.66 3.96 1.32 6 2 C3.61426621 3.89213369 1.92824652 5.02391783 -1 6 C-1.042721 4.33388095 -1.04063832 2.66617115 -1 1 C-0.67 0.67 -0.34 0.34 0 0 Z " fill="#545455" transform="translate(326,60)"/>
<path d="M0 0 C0.99 0 1.98 0 3 0 C4.125 1.75 4.125 1.75 5 4 C4.125 6.25 4.125 6.25 3 8 C0 2.25 0 2.25 0 0 Z " fill="#5F5F63" transform="translate(198,230)"/>
<path d="M0 0 C0.99 0 1.98 0 3 0 C1.77472971 4.05281712 0.30119506 7.44360764 -2 11 C-3 9 -3 9 -2.44140625 6.8359375 C-2.15136719 6.02382812 -1.86132812 5.21171875 -1.5625 4.375 C-1.27503906 3.55773437 -0.98757812 2.74046875 -0.69140625 1.8984375 C-0.46324219 1.27195313 -0.23507813 0.64546875 0 0 Z " fill="#A1A1A3" transform="translate(162,193)"/>
<path d="M0 0 C0.66 0.33 1.32 0.66 2 1 C0.7508258 4.45925163 -0.67527795 7.14693203 -3 10 C-3 8.35 -3 6.7 -3 5 C-2.34 5 -1.68 5 -1 5 C-0.67 3.35 -0.34 1.7 0 0 Z " fill="#6F6A71" transform="translate(247,177)"/>
<path d="M0 0 C0.33 0.66 0.66 1.32 1 2 C1.66 2.33 2.32 2.66 3 3 C1.6875 5.5 1.6875 5.5 0 8 C-0.99 8 -1.98 8 -3 8 C-1.125 2.25 -1.125 2.25 0 0 Z " fill="#5B595E" transform="translate(150,127)"/>
<path d="M0 0 C0.99 0 1.98 0 3 0 C2.1875 2.4375 2.1875 2.4375 1 5 C0.01 5.33 -0.98 5.66 -2 6 C-1.125 1.125 -1.125 1.125 0 0 Z " fill="#717172" transform="translate(214,112)"/>
<path d="M0 0 C1.32 0.33 2.64 0.66 4 1 C3.979375 1.94875 3.95875 2.8975 3.9375 3.875 C3.77448174 6.90666283 3.77448174 6.90666283 5 9 C4.01 8.67 3.02 8.34 2 8 C0.5522078 5.10441559 0 3.25811062 0 0 Z " fill="#99999A" transform="translate(102,85)"/>
<path d="M0 0 C1.32 1.65 2.64 3.3 4 5 C3.34 6.32 2.68 7.64 2 9 C-1.07692308 4.56923077 -1.07692308 4.56923077 -0.6875 1.6875 C-0.460625 1.130625 -0.23375 0.57375 0 0 Z " fill="#59585B" transform="translate(195,221)"/>
<path d="M0 0 C0.99 0 1.98 0 3 0 C2.67 1.98 2.34 3.96 2 6 C2.66 6.33 3.32 6.66 4 7 C3.01 7 2.02 7 1 7 C1 6.34 1 5.68 1 5 C0.34 5 -0.32 5 -1 5 C-0.67 3.35 -0.34 1.7 0 0 Z " fill="#2B2A2F" transform="translate(119,213)"/>
<path d="M0 0 C1.32 1.32 2.64 2.64 4 4 C3.67 4.66 3.34 5.32 3 6 C1.35 6 -0.3 6 -2 6 C-1.34 4.02 -0.68 2.04 0 0 Z " fill="#727176" transform="translate(199,140)"/>
<path d="M0 0 C0.99 0.99 1.98 1.98 3 3 C2.34 4.65 1.68 6.3 1 8 C0.01 7.01 -0.98 6.02 -2 5 C-1.34 4.67 -0.68 4.34 0 4 C0 2.68 0 1.36 0 0 Z " fill="#565557" transform="translate(131,139)"/>
<path d="M0 0 C0.66 0 1.32 0 2 0 C0.68775452 3.93673644 -0.91910327 6.22719294 -4 9 C-2.25 2.25 -2.25 2.25 0 0 Z " fill="#1C181C" transform="translate(283,116)"/>
<path d="M0 0 C0.66 0 1.32 0 2 0 C2 2.64 2 5.28 2 8 C0.68 7.67 -0.64 7.34 -2 7 C-1.34 6.67 -0.68 6.34 0 6 C0 4.02 0 2.04 0 0 Z " fill="#605D5E" transform="translate(109,101)"/>
<path d="M0 0 C0 2.31 0 4.62 0 7 C-0.99 7 -1.98 7 -3 7 C-3 5.02 -3 3.04 -3 1 C-1 0 -1 0 0 0 Z " fill="#3D3C3C" transform="translate(160,94)"/>
<path d="M0 0 C-0.33 1.32 -0.66 2.64 -1 4 C-2.98 3.01 -4.96 2.02 -7 1 C-3.375 -1.125 -3.375 -1.125 0 0 Z " fill="#3A3940" transform="translate(21,54)"/>
<path d="M0 0 C1.32 0 2.64 0 4 0 C4.33 0.66 4.66 1.32 5 2 C3.02 4.97 3.02 4.97 1 8 C-0.35439668 5.29120665 -0.06501451 2.99066732 0 0 Z " fill="#767678" transform="translate(275,126)"/>
<path d="M0 0 C3.12270126 2.51830747 3.94523098 3.7261549 4.75 7.75 C4.8325 8.8225 4.915 9.895 5 11 C2.03947516 7.63576723 1.07710178 4.30840713 0 0 Z " fill="#171517" transform="translate(196,122)"/>
<path d="M0 0 C0.99 0.33 1.98 0.66 3 1 C3 1.99 3 2.98 3 4 C0.69 4.66 -1.62 5.32 -4 6 C-4.33 5.34 -4.66 4.68 -5 4 C-4.0409375 3.8453125 -4.0409375 3.8453125 -3.0625 3.6875 C-2.381875 3.460625 -1.70125 3.23375 -1 3 C-0.67 2.01 -0.34 1.02 0 0 Z " fill="#323136" transform="translate(249,104)"/>
<path d="M0 0 C0.99 0.33 1.98 0.66 3 1 C2.67 2.32 2.34 3.64 2 5 C0.02 4.34 -1.96 3.68 -4 3 C-2.1875 1.4375 -2.1875 1.4375 0 0 Z " fill="#1D1C22" transform="translate(290,99)"/>
<path d="M0 0 C0.66 0 1.32 0 2 0 C2.625 2.375 2.625 2.375 3 5 C2.34 5.66 1.68 6.32 1 7 C0.34 7 -0.32 7 -1 7 C-1.04254356 5.00045254 -1.04080783 2.99958364 -1 1 C-0.67 0.67 -0.34 0.34 0 0 Z " fill="#272729" transform="translate(170,91)"/>
<path d="M0 0 C0.33 0 0.66 0 1 0 C1.125 2.375 1.125 2.375 1 5 C0.34 5.66 -0.32 6.32 -1 7 C-3.125 6.625 -3.125 6.625 -5 6 C-4.01 5.67 -3.02 5.34 -2 5 C-0.78130071 2.49552484 -0.78130071 2.49552484 0 0 Z " fill="#59575D" transform="translate(256,80)"/>
<path d="M0 0 C0.99 0.66 1.98 1.32 3 2 C-0.465 3.485 -0.465 3.485 -4 5 C-3.6875 3.0625 -3.6875 3.0625 -3 1 C-2.01 0.67 -1.02 0.34 0 0 Z " fill="#6A6A6C" transform="translate(337,48)"/>
<path d="M0 0 C0.66 0 1.32 0 2 0 C2 0.66 2 1.32 2 2 C3.32 1.67 4.64 1.34 6 1 C5.67 2.98 5.34 4.96 5 7 C4.34 6.67 3.68 6.34 3 6 C3 5.01 3 4.02 3 3 C2.34 3 1.68 3 1 3 C0.67 2.01 0.34 1.02 0 0 Z " fill="#79787B" transform="translate(104,195)"/>
<path d="M0 0 C0.66 0 1.32 0 2 0 C2 1.32 2 2.64 2 4 C-0.5 5.75 -0.5 5.75 -3 7 C-2.67 5.35 -2.34 3.7 -2 2 C-1.34 2 -0.68 2 0 2 C0 1.34 0 0.68 0 0 Z " fill="#272728" transform="translate(211,90)"/>
<path d="M0 0 C1.32 0 2.64 0 4 0 C4 1.32 4 2.64 4 4 C1.03 3.505 1.03 3.505 -2 3 C-1.34 2.01 -0.68 1.02 0 0 Z " fill="#3A393E" transform="translate(301,90)"/>
<path d="M0 0 C0.33 0.99 0.66 1.98 1 3 C2.32 2.67 3.64 2.34 5 2 C4.67 2.99 4.34 3.98 4 5 C2.35 5 0.7 5 -1 5 C-1.33 4.01 -1.66 3.02 -2 2 C-1.34 1.34 -0.68 0.68 0 0 Z " fill="#969394" transform="translate(258,68)"/>
<path d="M0 0 C2.62187494 1.04874998 3.79371361 1.64931313 5.25 4.125 C5.4975 4.74375 5.745 5.3625 6 6 C4.125 5.8125 4.125 5.8125 2 5 C0.75 2.4375 0.75 2.4375 0 0 Z " fill="#8E8E8E" transform="translate(70,47)"/>
<path d="M0 0 C2.97 0.495 2.97 0.495 6 1 C6 1.66 6 2.32 6 3 C4.35 3 2.7 3 1 3 C0.67 2.01 0.34 1.02 0 0 Z " fill="#8A8A8A" transform="translate(115,99)"/>
<path d="M0 0 C1.32 0.33 2.64 0.66 4 1 C4 1.99 4 2.98 4 4 C2.68 4 1.36 4 0 4 C0 2.68 0 1.36 0 0 Z " fill="#9B9B9B" transform="translate(199,32)"/>
<path d="M0 0 C0.99 0 1.98 0 3 0 C2.67 1.32 2.34 2.64 2 4 C1.01 3.67 0.02 3.34 -1 3 C-0.67 2.01 -0.34 1.02 0 0 Z " fill="#8D8C94" transform="translate(135,125)"/>
<path d="M0 0 C0.99 0 1.98 0 3 0 C3 1.32 3 2.64 3 4 C2.01 4 1.02 4 0 4 C0 2.68 0 1.36 0 0 Z " fill="#9F9F9F" transform="translate(207,119)"/>
<path d="M0 0 C1.5 1.3125 1.5 1.3125 3 3 C3 3.99 3 4.98 3 6 C2.34 6 1.68 6 1 6 C0.67 4.02 0.34 2.04 0 0 Z " fill="#8B8B8C" transform="translate(128,108)"/>
<path d="M0 0 C0.99 0 1.98 0 3 0 C3 0.99 3 1.98 3 3 C2.01 3 1.02 3 0 3 C0 2.01 0 1.02 0 0 Z " fill="#A2A0A1" transform="translate(191,86)"/>
<path d="" fill="#FFFFFF" transform="translate(0,0)"/>
</svg>
